<?xml version="1.0" encoding="UTF-8"?>
<svg width="161px" height="130px" viewBox="0 0 161 130" version="1.1" xmlns="http://www.w3.org/2000/svg" xmlns:xlink="http://www.w3.org/1999/xlink">
    <title>Group 7</title>
    <defs>
        <linearGradient x1="13.304643%" y1="56.9202769%" x2="85.2830646%" y2="47.3773289%" id="linearGradient-1">
            <stop stop-color="#FEFEFE" offset="0%"></stop>
            <stop stop-color="#DADBDB" offset="3%"></stop>
            <stop stop-color="#A5A6A6" offset="8%"></stop>
            <stop stop-color="#848585" offset="12%"></stop>
            <stop stop-color="#787979" offset="14%"></stop>
            <stop stop-color="#858686" offset="15%"></stop>
            <stop stop-color="#AEAEAE" offset="21%"></stop>
            <stop stop-color="#CECECE" offset="27%"></stop>
            <stop stop-color="#E5E5E5" offset="33%"></stop>
            <stop stop-color="#F2F2F2" offset="38%"></stop>
            <stop stop-color="#F7F7F7" offset="42%"></stop>
            <stop stop-color="#F4F4F4" offset="54%"></stop>
            <stop stop-color="#EAEAEA" offset="63%"></stop>
            <stop stop-color="#D9D9D9" offset="71%"></stop>
            <stop stop-color="#C1C2C2" offset="79%"></stop>
            <stop stop-color="#A3A4A4" offset="86%"></stop>
            <stop stop-color="#9B9C9C" offset="88%"></stop>
            <stop stop-color="#B9B9B9" offset="91%"></stop>
            <stop stop-color="#CECECE" offset="94%"></stop>
            <stop stop-color="#DBDBDB" offset="97%"></stop>
            <stop stop-color="#DFDFDF" offset="100%"></stop>
        </linearGradient>
        <linearGradient x1="16.195985%" y1="64.0337108%" x2="74.7466668%" y2="39.0686366%" id="linearGradient-2">
            <stop stop-color="#FEFEFE" offset="0%"></stop>
            <stop stop-color="#DFDFDF" offset="6%"></stop>
            <stop stop-color="#BABBBB" offset="14%"></stop>
            <stop stop-color="#9D9E9E" offset="22%"></stop>
            <stop stop-color="#898989" offset="30%"></stop>
            <stop stop-color="#7C7D7D" offset="38%"></stop>
            <stop stop-color="#787979" offset="45%"></stop>
            <stop stop-color="#808181" offset="49%"></stop>
            <stop stop-color="#979898" offset="55%"></stop>
            <stop stop-color="#BDBDBD" offset="62%"></stop>
            <stop stop-color="#F0F0F0" offset="70%"></stop>
            <stop stop-color="#F7F7F7" offset="71%"></stop>
            <stop stop-color="#DFDFDF" offset="76%"></stop>
            <stop stop-color="#C1C2C2" offset="82%"></stop>
            <stop stop-color="#ACADAD" offset="88%"></stop>
            <stop stop-color="#9FA0A0" offset="94%"></stop>
            <stop stop-color="#9B9C9C" offset="100%"></stop>
        </linearGradient>
        <linearGradient x1="13.6389254%" y1="67.0719322%" x2="95.496855%" y2="41.9814774%" id="linearGradient-3">
            <stop stop-color="#FEFEFE" offset="0%"></stop>
            <stop stop-color="#DFDFDF" offset="6%"></stop>
            <stop stop-color="#BABBBB" offset="14%"></stop>
            <stop stop-color="#9D9E9E" offset="22%"></stop>
            <stop stop-color="#898989" offset="30%"></stop>
            <stop stop-color="#7C7D7D" offset="38%"></stop>
            <stop stop-color="#787979" offset="45%"></stop>
            <stop stop-color="#808181" offset="49%"></stop>
            <stop stop-color="#979898" offset="55%"></stop>
            <stop stop-color="#BDBDBD" offset="62%"></stop>
            <stop stop-color="#F0F0F0" offset="70%"></stop>
            <stop stop-color="#F7F7F7" offset="71%"></stop>
            <stop stop-color="#DFDFDF" offset="76%"></stop>
            <stop stop-color="#C1C2C2" offset="82%"></stop>
            <stop stop-color="#ACADAD" offset="88%"></stop>
            <stop stop-color="#9FA0A0" offset="94%"></stop>
            <stop stop-color="#9B9C9C" offset="100%"></stop>
        </linearGradient>
        <linearGradient x1="9.81365337%" y1="65.7064248%" x2="97.5635626%" y2="43.9812075%" id="linearGradient-4">
            <stop stop-color="#7B7C7C" offset="0%"></stop>
            <stop stop-color="#878888" offset="1%"></stop>
            <stop stop-color="#C7C7C7" offset="10%"></stop>
            <stop stop-color="#EFEFEF" offset="15%"></stop>
            <stop stop-color="#FEFEFE" offset="18%"></stop>
            <stop stop-color="#EFF0F0" offset="22%"></stop>
            <stop stop-color="#AFB0B0" offset="38%"></stop>
            <stop stop-color="#878888" offset="50%"></stop>
            <stop stop-color="#787979" offset="56%"></stop>
            <stop stop-color="#828383" offset="60%"></stop>
            <stop stop-color="#9D9D9D" offset="66%"></stop>
            <stop stop-color="#C8C8C8" offset="73%"></stop>
            <stop stop-color="#F7F7F7" offset="81%"></stop>
            <stop stop-color="#F3F3F3" offset="85%"></stop>
            <stop stop-color="#E8E8E8" offset="89%"></stop>
            <stop stop-color="#D5D5D5" offset="93%"></stop>
            <stop stop-color="#BBBBBB" offset="97%"></stop>
            <stop stop-color="#9B9C9C" offset="100%"></stop>
        </linearGradient>
    </defs>
    <g id="Page-1" stroke="none" stroke-width="1" fill="none" fill-rule="evenodd">
        <g id="11.1.0-MEDIOS-PUBLICOS-DESPLEGADO" transform="translate(-127.000000, -1082.000000)" fill-rule="nonzero">
            <g id="Group-7" transform="translate(127.000000, 1082.000000)">
                <g id="LOGO_CanalCongreso_1" transform="translate(0.000000, 96.000000)" fill="#000000">
                    <path d="M9.45538895e-13,8.17214286 C-0.00776115119,7.20553365 0.132934827,6.24336671 0.417272727,5.31857143 C0.678473125,4.48097971 1.09461993,3.69866775 1.64454545,3.01142857 C2.17701118,2.35815851 2.84714602,1.82772374 3.60818182,1.45714286 C4.4386947,1.07778565 5.34442149,0.88694051 6.25909091,0.898571429 C6.93947524,0.886736231 7.61664571,0.993608138 8.25954545,1.21428571 C8.77468271,1.40368659 9.25544364,1.67432841 9.68318182,2.01571429 C10.0523171,2.31186017 10.3713276,2.66438725 10.6281818,3.06 C10.8490711,3.39405705 11.0380675,3.74772415 11.1927273,4.11642857 C11.3042221,4.39678337 11.3944714,4.68496041 11.4627273,4.97857143 C11.4627273,5.20928571 11.5363636,5.34285714 11.5363636,5.36714286 L10.7263636,5.36714286 C10.6494094,4.81560293 10.4660876,4.2838243 10.1863636,3.80071429 C9.931266,3.33680833 9.58981388,2.92480971 9.18,2.58642857 C8.77741932,2.26305266 8.32044575,2.01232166 7.83,1.84571429 C7.32387309,1.67671747 6.79326179,1.59058525 6.25909091,1.59071429 C5.45846989,1.57596977 4.66635754,1.75522721 3.95181818,2.11285714 C3.28942513,2.45850641 2.70814317,2.9384717 2.24590909,3.52142857 C1.77756492,4.16198335 1.43227663,4.88229695 1.22727273,5.64642857 C0.73631728,7.29520401 0.73631728,9.04908171 1.22727273,10.6978571 C1.45280226,11.4484038 1.8146161,12.1520297 2.295,12.7742857 C2.75723408,13.3572426 3.33851604,13.8372079 4.00090909,14.1828571 C4.71544845,14.5404871 5.50756079,14.7197445 6.30818182,14.705 C6.93006841,14.7096928 7.54419078,14.5681914 8.1,14.2921429 C8.65243383,14.0122959 9.14762453,13.6335106 9.56045455,13.175 C9.98651113,12.7064468 10.3270315,12.1682015 10.5668182,11.5842857 C10.7967811,10.9859151 10.9253276,10.354087 10.9472727,9.71428571 L11.7572727,9.71428571 C11.6922934,10.506545 11.4931543,11.2823577 11.1681818,12.0092857 C10.8653768,12.6766726 10.450406,13.288436 9.94090909,13.8185714 C9.47021573,14.3327684 8.89798235,14.746037 8.25954545,15.0328571 C7.61794004,15.3138485 6.92392147,15.4586292 6.22227273,15.4578571 C5.30714778,15.4741096 4.40038934,15.2830471 3.57136364,14.8992857 C2.82480156,14.5278203 2.16768144,14.0018894 1.64454545,13.3571429 C1.09461993,12.6699037 0.678473125,11.8875917 0.417272727,11.05 C0.129511402,10.1176361 -0.0112329841,9.1469466 9.4447475e-13,8.17214286 L9.45538895e-13,8.17214286 Z" id="Path"></path>
                    <path d="M19.3663636,13.1385714 L19.3663636,13.1385714 C19.2501716,13.4400183 19.0888219,13.7224623 18.8877273,13.9764286 C18.671165,14.2510385 18.4147561,14.4924584 18.1268182,14.6928571 C17.8128176,14.9026805 17.469694,15.0662914 17.1081818,15.1785714 C16.7090601,15.2913769 16.2959957,15.348594 15.8809091,15.3485714 C15.0448198,15.4026659 14.2170152,15.1569525 13.5490909,14.6564286 C12.9580521,14.1110041 12.6507801,13.3285987 12.7145455,12.5314286 C12.6948997,12.033212 12.8092466,11.5387618 13.0459091,11.0985714 C13.2546786,10.7491865 13.5398289,10.4504577 13.8804545,10.2242857 C14.2268977,10.0068028 14.6089666,9.85066172 15.0095455,9.76285714 C15.4145455,9.67785714 15.8072727,9.61714286 16.2368182,9.56857143 L17.1818182,9.47142857 C17.5964218,9.45542382 18.0079879,9.39434218 18.4090909,9.28928571 C18.6581304,9.2333877 18.8871756,9.11168357 19.0718182,8.93714286 C19.2211572,8.78034787 19.315784,8.58032993 19.3418182,8.36642857 C19.3850367,8.07700256 19.4055525,7.78470129 19.4031818,7.49214286 C19.4054602,7.23397202 19.3553817,6.97797122 19.2559091,6.73928571 C19.1550858,6.4806918 18.9905579,6.25112062 18.7772727,6.07142857 C18.538726,5.87757624 18.2632889,5.73305674 17.9672727,5.64642857 C17.5693155,5.5293544 17.1549833,5.4760612 16.74,5.48857143 C16.00479,5.47296621 15.2891007,5.72339744 14.7272727,6.19285714 C14.1703107,6.71244978 13.8587431,7.43908747 13.8681818,8.19642857 L13.1809091,8.19642857 C13.1737633,7.28852261 13.5313344,6.4149737 14.175,5.76785714 C14.9014718,5.15302391 15.8335488,4.82830074 16.7890909,4.85714286 C17.668383,4.79006742 18.5419285,5.04503641 19.2436364,5.57357143 C19.7648577,6.05120856 20.0513508,6.72885861 20.0290909,7.43142857 L20.0290909,13.2478571 C20.0290909,13.3814286 20.0290909,13.5271429 20.0290909,13.6728571 C20.0294995,13.8047113 20.050191,13.9357358 20.0904545,14.0614286 C20.121649,14.1708966 20.1858748,14.2683341 20.2745455,14.3407143 C20.3800867,14.4195893 20.5107331,14.4583685 20.6427273,14.45 C20.8143149,14.4624557 20.9865942,14.4624557 21.1581818,14.45 L21.1581818,15.0692857 C20.9757542,15.1270935 20.7851857,15.1557861 20.5936364,15.1542857 C20.3621123,15.1669503 20.1308373,15.1253452 19.9186364,15.0328571 C19.7967891,14.945186 19.6996211,14.8281463 19.6363636,14.6928571 C19.5478837,14.5522515 19.4894122,14.3952226 19.4645455,14.2314286 C19.4447622,14.041694 19.4447622,13.8504489 19.4645455,13.6607143 L19.3663636,13.1385714 Z M19.3663636,9.49571429 C19.1721589,9.73924476 18.891118,9.9000022 18.5809091,9.945 C18.1760242,10.0282082 17.7660497,10.0849973 17.3536364,10.115 L16.1263636,10.2364286 C15.779974,10.275325 15.4358704,10.3320687 15.0954545,10.4064286 C14.7698279,10.4684258 14.4580761,10.5876942 14.175,10.7585714 C13.8942523,10.9288363 13.6619527,11.1670356 13.5,11.4507143 C13.3131818,11.8017995 13.2242249,12.195774 13.2422727,12.5921429 C13.1909809,13.211188 13.4363639,13.8181538 13.905,14.2314286 C14.4268348,14.6178444 15.0709231,14.8073038 15.7213636,14.7657143 C17.3726315,14.8511961 18.8366025,13.7234515 19.1577273,12.1185714 C19.2059529,11.8698368 19.2387415,11.618414 19.2559091,11.3657143 L19.3663636,9.49571429 Z" id="Shape"></path>
                    <path d="M22.2872727,5.12428571 L22.9868182,5.12428571 L22.9868182,7.28571429 L22.9868182,7.28571429 C23.1052563,6.92322789 23.2835804,6.58266334 23.5145455,6.27785714 C23.7389978,5.99486294 24.0035409,5.74538845 24.3,5.53714286 C24.6054418,5.33077903 24.9405673,5.17112977 25.2940909,5.06357143 C26.0938825,4.82083844 26.9488448,4.82083844 27.7486364,5.06357143 C28.0973604,5.1871687 28.4183583,5.37690443 28.6936364,5.62214286 C28.9323405,5.84875644 29.1277455,6.1161377 29.2704545,6.41142857 C29.4108667,6.69260512 29.5139922,6.99054516 29.5772727,7.29785714 C29.635951,7.58208094 29.672874,7.87027971 29.6877273,8.16 C29.6877273,8.43928571 29.6877273,8.68214286 29.6877273,8.90071429 L29.6877273,15.0814286 L28.9881818,15.0814286 L28.9881818,8.79142857 C28.9881818,8.54857143 28.9881818,8.23285714 28.9881818,7.85642857 C28.9499244,7.48370042 28.8417088,7.12130797 28.6690909,6.78785714 C28.477926,6.43024169 28.1994972,6.12554137 27.8590909,5.90142857 C27.411274,5.62595644 26.8882247,5.4944569 26.3618182,5.525 C25.3965403,5.52690157 24.487977,5.97637598 23.9072727,6.73928571 C23.6031686,7.13642217 23.3744602,7.58488419 23.2322727,8.06285714 C23.0740007,8.59952702 22.9914022,9.15525383 22.9868182,9.71428571 L22.9868182,15.1178571 L22.2872727,15.1178571 L22.2872727,5.12428571 Z" id="Path"></path>
                    <path d="M38.1068182,13.1385714 L38.1068182,13.1385714 C37.9906261,13.4400183 37.8292764,13.7224623 37.6281818,13.9764286 C37.4148135,14.2538857 37.1579265,14.4957558 36.8672727,14.6928571 C36.5550307,14.9056925 36.211434,15.069529 35.8486364,15.1785714 C35.4495146,15.2913769 35.0364503,15.348594 34.6213636,15.3485714 C33.7854003,15.4015719 32.9579732,15.1559705 32.2895455,14.6564286 C31.6985066,14.1110041 31.3912347,13.3285987 31.455,12.5314286 C31.4353542,12.033212 31.5497011,11.5387618 31.7863636,11.0985714 C31.9951332,10.7491865 32.2802834,10.4504577 32.6209091,10.2242857 C32.9673523,10.0068028 33.3494212,9.85066172 33.75,9.76285714 C34.155,9.67785714 34.5477273,9.61714286 34.9772727,9.56857143 L36.0695455,9.47142857 C36.4839419,9.45327885 36.8952771,9.39223148 37.2968182,9.28928571 C37.5410557,9.23027084 37.7653518,9.10884152 37.9472727,8.93714286 C38.0966117,8.78034787 38.1912385,8.58032993 38.2172727,8.36642857 C38.2604913,8.07700256 38.2810071,7.78470129 38.2786364,7.49214286 C38.2809147,7.23397202 38.2308362,6.97797122 38.1313636,6.73928571 C38.0288307,6.49513265 37.8689588,6.27867559 37.665,6.10785714 C37.4264533,5.91400481 37.1510161,5.76948531 36.855,5.68285714 C36.4570428,5.56578297 36.0427106,5.51248977 35.6277273,5.525 C34.88472,5.49020757 34.1548836,5.7280293 33.5781818,6.19285714 C33.0244734,6.71370011 32.7172302,7.4406373 32.7313636,8.19642857 L31.9090909,8.19642857 C31.9019451,7.28852261 32.2595162,6.4149737 32.9031818,5.76785714 C33.6485455,5.13560631 34.6102931,4.80972606 35.5909091,4.85714286 C36.4693515,4.79788188 37.3401736,5.05205597 38.0454545,5.57357143 C38.5621493,6.05339495 38.8440428,6.73074899 38.8186364,7.43142857 L38.8186364,13.2478571 C38.8186364,13.3814286 38.8186364,13.5271429 38.8186364,13.6728571 C38.8190449,13.8047113 38.8397365,13.9357358 38.88,14.0614286 C38.9111945,14.1708966 38.9754203,14.2683341 39.0640909,14.3407143 C39.1696321,14.4195893 39.3002785,14.4583685 39.4322727,14.45 C39.6038603,14.4624557 39.7761397,14.4624557 39.9477273,14.45 L39.9477273,15.0692857 C39.7654975,15.1279237 39.5747918,15.156637 39.3831818,15.1542857 C39.1516577,15.1669503 38.9203828,15.1253452 38.7081818,15.0328571 C38.5550389,14.9690712 38.423176,14.8638554 38.3277273,14.7292857 C38.2392474,14.5886801 38.1807758,14.4316512 38.1559091,14.2678571 C38.1361258,14.0781225 38.1361258,13.8868775 38.1559091,13.6971429 L38.1068182,13.1385714 Z M38.1068182,9.49571429 C37.9155894,9.73660354 37.6394122,9.89708647 37.3336364,9.945 C36.9284794,10.0266492 36.5186059,10.0834243 36.1063636,10.115 L34.8790909,10.2364286 C34.5367656,10.27537 34.1967497,10.3321152 33.8604545,10.4064286 C33.5309403,10.4682961 33.2151357,10.5875253 32.9277273,10.7585714 C32.6469796,10.9288363 32.41468,11.1670356 32.2527273,11.4507143 C32.0659091,11.8017995 31.9769521,12.195774 31.995,12.5921429 C31.9437082,13.211188 32.1890911,13.8181538 32.6577273,14.2314286 C33.1805347,14.6159257 33.8238951,14.8051709 34.4740909,14.7657143 C36.1946261,14.9176655 37.7463393,13.7411352 38.0454545,12.0578571 C38.0936802,11.8091225 38.1264688,11.5576997 38.1436364,11.305 L38.1068182,9.49571429 Z" id="Shape"></path>
                    <polygon id="Path" points="41.8990909 1.21428571 41.8990909 15.1178571 41.1995455 15.1178571 41.1995455 1.21428571"></polygon>
                    <path d="M56.5404545,12.9807143 L56.5404545,12.9807143 C56.2168627,13.6902652 55.7086337,14.3020671 55.0677273,14.7535714 C54.4312114,15.1668377 53.6808654,15.3747113 52.92,15.3485714 C51.6741227,15.3947179 50.4935446,14.796879 49.8027273,13.77 C49.4703534,13.2733831 49.2293694,12.7225186 49.0909091,12.1428571 C48.9312736,11.4992048 48.8529483,10.8384458 48.8577273,10.1757143 C48.8414565,9.4643578 48.9198567,8.75397526 49.0909091,8.06285714 C49.2417155,7.46335865 49.508445,6.89843282 49.8763636,6.39928571 C50.219544,5.93332353 50.6696066,5.55461041 51.1895455,5.29428571 C51.7516185,5.00870725 52.3740612,4.85890445 53.0059091,4.85714286 C53.3886206,4.85924482 53.7689802,4.91651314 54.135,5.02714286 C54.4960761,5.13499001 54.8392575,5.29453754 55.1536364,5.50071429 C55.4642259,5.71484948 55.737759,5.97728696 55.9636364,6.27785714 C56.2006506,6.59851226 56.3830587,6.95536629 56.5036364,7.33428571 L56.5036364,7.33428571 L56.5036364,1.21428571 L57.2031818,1.21428571 L57.2031818,15.1178571 L56.5036364,15.1178571 L56.5404545,12.9807143 Z M53.0304545,14.705 C53.5728027,14.7239307 54.1093232,14.5891134 54.5768182,14.3164286 C55.0171745,14.0612305 55.3912003,13.7077948 55.6690909,13.2842857 C55.966852,12.8351268 56.1828396,12.3378587 56.3072727,11.815 C56.450611,11.2678646 56.5207554,10.7044826 56.5159091,10.1392857 C56.5214902,9.56604709 56.4513512,8.9945437 56.3072727,8.43928571 C56.1806735,7.91334592 55.9648901,7.41244209 55.6690909,6.95785714 C55.3945115,6.52845243 55.0199718,6.17036745 54.5768182,5.91357143 C54.0975734,5.64775905 53.5551981,5.51360008 53.0059091,5.525 C52.4502034,5.51245931 51.9006418,5.64212185 51.4104545,5.90142857 C50.9675449,6.15326222 50.5927929,6.50738407 50.3181818,6.93357143 C50.0144763,7.37814131 49.8018279,7.87732126 49.6922727,8.40285714 C49.5583713,8.97207034 49.4924658,9.55486789 49.4959091,10.1392857 C49.4965084,10.7121676 49.5665541,11.2829106 49.7045455,11.8392857 C49.8186149,12.376608 50.0262535,12.8902113 50.3181818,13.3571429 C50.5968509,13.7768066 50.9709159,14.1261206 51.4104545,14.3771429 C51.9103711,14.6298796 52.4703883,14.7432164 53.0304545,14.705 L53.0304545,14.705 Z" id="Shape"></path>
                    <path d="M59.7190909,10.2121429 L59.7190909,10.3335714 C59.7168039,10.8993948 59.7911004,11.4629737 59.94,12.0092857 C60.0805996,12.4930602 60.3048224,12.9490855 60.6027273,13.3571429 C60.8825459,13.7524015 61.2525391,14.0768796 61.6827273,14.3042857 C62.1507731,14.549673 62.675055,14.6709898 63.2045455,14.6564286 C64.0334655,14.7013357 64.8462501,14.417249 65.4627273,13.8671429 C66.05632,13.2684576 66.4540279,12.5068459 66.6040909,11.6814286 L67.3036364,11.6814286 C67.1698564,12.7002284 66.6944942,13.645168 65.9536364,14.365 C64.6450412,15.3784356 62.8742176,15.5845632 61.3636364,14.8992857 C60.854384,14.6389286 60.4100221,14.2697805 60.0627273,13.8185714 C59.6949621,13.3282923 59.4280939,12.771324 59.2772727,12.1792857 C58.9252027,10.8539354 58.9252027,9.46106462 59.2772727,8.13571429 C59.4422391,7.52781835 59.7121175,6.95269297 60.075,6.43571429 C60.4206457,5.93459557 60.8784105,5.51907196 61.4127273,5.22142857 C62.0010809,4.9426965 62.6516505,4.81730328 63.3027273,4.85714286 C64.4960269,4.82595601 65.6305503,5.3691098 66.3463636,6.31428571 C66.7002019,6.77989675 66.9624783,7.30713697 67.1195455,7.86857143 C67.305332,8.48296877 67.3963566,9.121586 67.3895455,9.76285714 C67.3950301,9.83561324 67.3950301,9.90867248 67.3895455,9.98142857 L67.3895455,10.1878571 L59.7190909,10.2121429 Z M66.6777273,9.56857143 C66.6558312,9.04603506 66.5692766,8.52812492 66.42,8.02642857 C66.2818065,7.56037905 66.0570627,7.12388364 65.7572727,6.73928571 C65.4724896,6.37820046 65.117862,6.07686081 64.7140909,5.85285714 C64.27841,5.62941979 63.7933862,5.51674965 63.3027273,5.525 C62.7833053,5.51793544 62.2697811,5.63454627 61.8054545,5.865 C61.3842244,6.0891369 61.0127873,6.39470412 60.7131818,6.76357143 C60.4116301,7.14887024 60.1829537,7.58492829 60.0381818,8.05071429 C59.8799772,8.54343665 59.7811113,9.05291427 59.7436364,9.56857143 L66.6777273,9.56857143 Z" id="Shape"></path>
                    <polygon id="Path" points="69.8686364 1.21428571 69.8686364 15.1178571 69.1813636 15.1178571 69.1813636 1.21428571"></polygon>
                    <path d="M85.9090909,4.93 C85.560934,4.36645847 85.0281852,3.9379127 84.3995455,3.71571429 C84.0746595,3.59056803 83.7295321,3.52474148 83.3809091,3.52142857 C82.8021186,3.50378225 82.2293846,3.64230239 81.7240909,3.92214286 C81.2759638,4.18725869 80.8974981,4.55339809 80.6195455,4.99071429 C80.3277362,5.46341021 80.1162912,5.98027561 79.9936364,6.52071429 C79.8614737,7.08253365 79.7874559,7.65620485 79.7727273,8.23285714 C79.7713058,8.80446761 79.833036,9.37451941 79.9568182,9.93285714 C80.083857,10.4604774 80.2951481,10.9646694 80.5827273,11.4264286 C80.8614639,11.8599014 81.2399695,12.2219182 81.6872727,12.4828571 C82.1925665,12.7626976 82.7653004,12.9012178 83.3440909,12.8835714 C84.1282067,12.9218957 84.8872224,12.6045157 85.4059091,12.0214286 C85.9442925,11.3648435 86.2618207,10.5581956 86.3140909,9.71428571 L89.1122727,9.71428571 C89.0647677,10.5496449 88.873858,11.3709037 88.5477273,12.1428571 C88.2587708,12.8141612 87.8421252,13.4242714 87.3204545,13.94 C86.815399,14.4288162 86.2137379,14.8091431 85.5531818,15.0571429 C84.8445292,15.3255769 84.0905367,15.4574689 83.3318182,15.4457143 C82.3944853,15.4595794 81.4651618,15.2731964 80.6072727,14.8992857 C79.8126706,14.543294 79.108304,14.0164609 78.5454545,13.3571429 C77.9933189,12.6803612 77.5767788,11.9055527 77.3181818,11.0742857 C77.0177876,10.1609065 76.8685906,9.20548914 76.8763636,8.245 C76.8653804,7.26043563 77.0145592,6.28053464 77.3181818,5.34285714 C77.5766378,4.50044759 77.9929698,3.71366825 78.5454545,3.02357143 C79.0939609,2.35856463 79.7858491,1.82335799 80.5704545,1.45714286 C81.4274049,1.07905969 82.3567667,0.888527003 83.295,0.898571429 C83.9917415,0.895775935 84.6841911,1.00654418 85.3445455,1.22642857 C85.973816,1.44067621 86.5566947,1.77022517 87.0627273,2.19785714 C87.5732143,2.62909993 87.9906163,3.15772084 88.29,3.75214286 C88.6346418,4.42276295 88.8470616,5.15218325 88.9159091,5.90142857 L86.2036364,5.90142857 C86.1699581,5.56180273 86.0699236,5.23188318 85.9090909,4.93 L85.9090909,4.93 Z" id="Path"></path>
                    <path d="M90.8181818,7.905 C91.0335764,7.29019109 91.3716305,6.7244711 91.8122727,6.24142857 C92.2413454,5.77628163 92.7695322,5.41129287 93.3586364,5.17285714 C93.9997845,4.90803292 94.6889153,4.7757976 95.3836364,4.78428571 C96.0822048,4.77718822 96.7750656,4.90933838 97.4209091,5.17285714 C98.0100132,5.41129287 98.5382,5.77628163 98.9672727,6.24142857 C99.407915,6.7244711 99.7459691,7.29019109 99.9613636,7.905 C100.205495,8.61225431 100.325858,9.35554078 100.317273,10.1028571 C100.325963,10.8422488 100.205558,11.5775735 99.9613636,12.2764286 C99.7459691,12.8912375 99.407915,13.4569575 98.9672727,13.94 C98.5374804,14.4013654 98.009241,14.7622425 97.4209091,14.9964286 C96.7742923,15.2561113 96.0813961,15.3841383 95.3836364,15.3728571 C94.6897658,15.3851918 94.0006673,15.2570948 93.3586364,14.9964286 C92.7703045,14.7622425 92.242065,14.4013654 91.8122727,13.94 C91.3716305,13.4569575 91.0335764,12.8912375 90.8181818,12.2764286 C90.5783966,11.5767898 90.4621531,10.8415253 90.4745455,10.1028571 C90.4622483,9.35625523 90.5784525,8.61302695 90.8181818,7.905 Z M93.2727273,11.2807143 C93.3379996,11.6401877 93.4667872,11.9854678 93.6531818,12.3007143 C93.8126987,12.603671 94.0551077,12.8561382 94.3527273,13.0292857 C94.6868045,13.2238619 95.0698049,13.320704 95.4572727,13.3085714 C95.8484446,13.3190843 96.2349437,13.2224315 96.5740909,13.0292857 C96.8754158,12.8568908 97.121982,12.6045216 97.2859091,12.3007143 C97.4723037,11.9854678 97.6010913,11.6401877 97.6663636,11.2807143 C97.7424556,10.8803939 97.7794442,10.4737586 97.7768182,10.0664286 C97.7786992,9.6591296 97.741717,9.25256429 97.6663636,8.85214286 C97.6032569,8.48827175 97.4743783,8.13863446 97.2859091,7.82 C97.1147752,7.52145525 96.8698559,7.27077154 96.5740909,7.09142857 C96.2372689,6.89266695 95.8490955,6.7955954 95.4572727,6.81214286 C95.0692013,6.79437701 94.6846026,6.89162328 94.3527273,7.09142857 C94.06043,7.27112295 93.8195796,7.52196678 93.6531818,7.82 C93.4647126,8.13863446 93.335834,8.48827175 93.2727273,8.85214286 C93.1973739,9.25256429 93.1603917,9.6591296 93.1622727,10.0664286 C93.1596467,10.4737586 93.1966353,10.8803939 93.2727273,11.2807143 L93.2727273,11.2807143 Z" id="Shape"></path>
                    <path d="M104.526818,5.06357143 L104.526818,6.46 L104.526818,6.46 C104.827423,5.93951033 105.275369,5.51740991 105.815455,5.24571429 C106.315185,4.98559443 106.870798,4.84816108 107.435455,4.845 C108.023222,4.82773847 108.608234,4.93109937 109.153636,5.14857143 C109.577259,5.33102439 109.94533,5.6198541 110.221364,5.98642857 C110.508221,6.37352562 110.708987,6.81633173 110.810455,7.28571429 C110.917372,7.85027249 110.970786,8.42347395 110.970009,8.99785714 L110.970009,15.1785714 L108.355909,15.1785714 L108.355909,9.435 C108.395704,8.79475665 108.268942,8.15510922 107.987727,7.57714286 C107.696489,7.15083717 107.191898,6.91754224 106.674545,6.97 C106.07765,6.91677642 105.494572,7.16860135 105.128182,7.63785714 C104.75292,8.31209629 104.586462,9.08068072 104.649545,9.84785714 L104.649545,15.1178571 L102.047727,15.1178571 L102.047727,5.06357143 L104.526818,5.06357143 Z" id="Path"></path>
                    <path d="M121.929545,15.8585714 C121.825164,16.3846599 121.598248,16.8794232 121.266818,17.3035714 C120.864733,17.7945829 120.351927,18.1855139 119.769545,18.445 C118.94645,18.7839932 118.058581,18.9414554 117.167727,18.9064286 C116.683359,18.9041093 116.201112,18.842937 115.731818,18.7242857 C115.265846,18.6236416 114.818632,18.4515655 114.406364,18.2142857 C114.011039,17.9504556 113.67647,17.6070131 113.424545,17.2064286 C113.144703,16.7649346 112.988027,16.2579864 112.970455,15.7371429 L115.56,15.7371429 C115.632273,16.183949 115.896295,16.5780047 116.284091,16.8178571 C116.6578,17.027263 117.082022,17.1321961 117.511364,17.1214286 C118.134058,17.1760463 118.741382,16.9100003 119.119091,16.4171429 C119.475816,15.9004665 119.648534,15.2809881 119.61,14.6564286 L119.61,13.2721429 L119.61,13.2721429 C119.344169,13.7974097 118.913612,14.2234109 118.382727,14.4864286 C117.869534,14.7309938 117.307791,14.8595739 116.738182,14.8628571 C116.100719,14.8796191 115.468768,14.7420609 114.897273,14.4621429 C114.407784,14.1973392 113.98754,13.8231218 113.67,13.3692857 C113.312191,12.8718878 113.053908,12.311327 112.909091,11.7178571 C112.741841,11.0627258 112.655303,10.389982 112.651364,9.71428571 C112.654557,9.09847096 112.741239,8.48586364 112.909091,7.89285714 C113.075495,7.31774055 113.341234,6.77545373 113.694545,6.29 C114.018146,5.84148055 114.437037,5.46846809 114.921818,5.19714286 C115.463166,4.91766399 116.066268,4.77578665 116.676818,4.78428571 C117.247839,4.775043 117.812462,4.90428244 118.321364,5.16071429 C118.846764,5.43119424 119.275264,5.85515907 119.548636,6.375 L119.548636,6.375 L119.548636,5.03928571 L122.003182,5.03928571 L122.003182,14.45 C122.027962,14.92078 122.003284,15.3928334 121.929545,15.8585714 L121.929545,15.8585714 Z M118.358182,12.5071429 C118.634662,12.3542741 118.873549,12.1427951 119.057727,11.8878571 C119.245282,11.6171755 119.386277,11.3176541 119.475,11.0014286 C119.564463,10.6603844 119.609825,10.3094866 119.61,9.95714286 C119.615389,9.54970336 119.578376,9.14279711 119.499545,8.74285714 C119.437169,8.39587607 119.312472,8.06275729 119.131364,7.75928571 C118.967978,7.47579456 118.730614,7.24094201 118.444091,7.07928571 C118.12255,6.90016598 117.757428,6.81195187 117.388636,6.82428571 C117.054286,6.81370686 116.723341,6.89346849 116.431364,7.055 C116.167655,7.21654085 115.941736,7.43179017 115.768636,7.68642857 C115.587795,7.96504675 115.458936,8.2735034 115.388182,8.59714286 C115.303669,8.95121671 115.262465,9.31405565 115.265455,9.67785714 C115.26714,10.0401986 115.299986,10.401741 115.363636,10.7585714 C115.424244,11.0965777 115.544732,11.421331 115.719545,11.7178571 C115.875486,12.0012969 116.098709,12.2429944 116.37,12.4221429 C116.674499,12.6109018 117.029619,12.7040339 117.388636,12.6892857 C117.722319,12.7128764 118.056461,12.6501031 118.358182,12.5071429 Z" id="Shape"></path>
                    <path d="M126.666818,5.06357143 L126.666818,6.93357143 L126.666818,6.93357143 C126.790606,6.61944712 126.960124,6.32490671 127.17,6.05928571 C127.372876,5.79983053 127.612633,5.57079013 127.881818,5.37928571 C128.152487,5.19781144 128.445264,5.05093199 128.753182,4.94214286 C129.062035,4.84059436 129.385009,4.7873351 129.710455,4.78428571 C129.902339,4.7900264 130.092423,4.82273474 130.275,4.88142857 L130.275,7.45571429 L129.833182,7.38285714 L129.342273,7.38285714 C128.91833,7.36807294 128.49712,7.4555911 128.115,7.63785714 C127.794399,7.79285539 127.519635,8.02706955 127.317273,8.31785714 C127.101904,8.62930867 126.951683,8.98024212 126.875455,9.35 C126.791981,9.74943827 126.750849,10.1564026 126.752727,10.5642857 L126.752727,15.0935714 L124.138636,15.0935714 L124.138636,5.06357143 L126.666818,5.06357143 Z" id="Path"></path>
                    <path d="M133.772727,12.7014286 C134.227718,13.1274821 134.841141,13.3473849 135.466364,13.3085714 C135.955361,13.3191582 136.434219,13.1697647 136.828636,12.8835714 C137.155856,12.6797031 137.402713,12.3711835 137.528182,12.0092857 L139.909091,12.0092857 C139.640106,13.0348085 139.02528,13.9387206 138.166364,14.5714286 C137.347302,15.1025053 136.383943,15.3736278 135.405,15.3485714 C134.710279,15.3570595 134.021148,15.2248242 133.38,14.96 C132.79644,14.7243117 132.275673,14.3586466 131.858182,13.8914286 C131.431567,13.3980154 131.102656,12.8295425 130.888636,12.2157143 C130.661594,11.5258697 130.549673,10.8040314 130.557273,10.0785714 C130.548451,9.36396064 130.664713,8.65323147 130.900909,7.97785714 C131.115467,7.3553992 131.453432,6.78157178 131.895,6.29 C132.323,5.8168993 132.845314,5.43654412 133.429091,5.17285714 C134.0502,4.89668434 134.724067,4.75588291 135.405,4.76 C136.144009,4.74454417 136.874784,4.91590086 137.528182,5.25785714 C138.120594,5.57932311 138.625814,6.03754092 139.000909,6.59357143 C139.398693,7.17097292 139.681903,7.8179354 139.835455,8.5 C140.008622,9.23158365 140.070667,9.98461108 140.019545,10.7342857 L133.159091,10.7342857 C133.11265,11.442297 133.331065,12.1424721 133.772727,12.7014286 Z M136.718182,7.41928571 C136.35279,7.03171996 135.828507,6.83048671 135.294545,6.87285714 C134.937847,6.8593179 134.583408,6.9344653 134.263636,7.09142857 C134.001806,7.22405637 133.774877,7.4153205 133.600909,7.65 C133.439336,7.85651608 133.318588,8.09133628 133.245,8.34214286 C133.185686,8.5610634 133.144639,8.78443282 133.122273,9.01 L137.454545,9.01 C137.372941,8.42639764 137.130965,7.87616285 136.755,7.41928571 L136.718182,7.41928571 Z" id="Shape"></path>
                    <path d="M143.762727,12.6164286 C143.873397,12.8214279 144.028452,12.9997198 144.216818,13.1385714 C144.404317,13.2850864 144.62225,13.3887531 144.855,13.4421429 C145.095353,13.505015 145.342758,13.5376534 145.591364,13.5392857 C145.789127,13.5358597 145.986223,13.5155462 146.180455,13.4785714 C146.373804,13.4311143 146.559637,13.3575678 146.732727,13.26 C146.893428,13.1595745 147.031332,13.0272645 147.137727,12.8714286 C147.257822,12.6873137 147.317804,12.4711192 147.309545,12.2521429 C147.309545,11.8392857 147.051818,11.5357143 146.524091,11.3292857 C145.819335,11.0584517 145.092642,10.8472192 144.351818,10.6978571 C143.974032,10.6127461 143.601207,10.5073521 143.235,10.3821429 C142.88986,10.2672887 142.563304,10.1036936 142.265455,9.89642857 C141.988482,9.69134209 141.758454,9.4306435 141.590455,9.13142857 C141.407854,8.78754634 141.319024,8.40250229 141.332727,8.01428571 C141.312584,7.46271759 141.435088,6.91519231 141.688636,6.42357143 C141.913711,6.02134585 142.239019,5.68275999 142.633636,5.44 C143.040404,5.19160739 143.489586,5.01877418 143.959091,4.93 C144.456183,4.83228407 144.961829,4.78347485 145.468636,4.78427578 C145.97183,4.78681884 146.473475,4.83970709 146.965909,4.94214286 C147.427412,5.03847499 147.867912,5.21527753 148.266818,5.46428571 C148.647465,5.72361918 148.969308,6.05859832 149.211818,6.44785714 C149.481814,6.9245737 149.637195,7.45641905 149.665909,8.00214286 L147.211364,8.00214286 C147.232283,7.56788704 147.016964,7.15569995 146.646818,6.92142857 C146.269236,6.72431815 145.846223,6.62805466 145.419545,6.64214286 C145.260212,6.63064174 145.100243,6.63064174 144.940909,6.64214286 C144.780488,6.66088384 144.62351,6.70175683 144.474545,6.76357143 C144.332798,6.8291985 144.210304,6.92950057 144.118636,7.055 C144.014254,7.19518313 143.962209,7.36683063 143.971364,7.54071429 C143.962082,7.77088586 144.056483,7.9932707 144.229091,8.14785714 C144.402343,8.29948289 144.601931,8.41879128 144.818182,8.5 C145.100455,8.59714286 145.407273,8.68214286 145.763182,8.76714286 L146.855455,9.02214286 C147.234522,9.10734051 147.607583,9.21685769 147.972273,9.35 C148.313523,9.47569231 148.635643,9.64730602 148.929545,9.86 C149.212398,10.0770247 149.44646,10.3499643 149.616818,10.6614286 C149.807544,11.0372827 149.896352,11.4557006 149.874545,11.8757143 C149.889467,12.452908 149.758706,13.0246754 149.494091,13.5392857 C149.254741,13.9691332 148.918839,14.3388695 148.512273,14.62 C148.09056,14.8951554 147.619996,15.0888053 147.125455,15.1907143 C146.601021,15.301892 146.066333,15.3588645 145.53,15.3607215 C144.984738,15.3614846 144.441185,15.3003709 143.91,15.1785714 C143.405393,15.0779768 142.925789,14.8799126 142.498636,14.5957143 C142.082241,14.3184601 141.737521,13.948272 141.492273,13.515 C141.215268,12.9986222 141.067938,12.4238673 141.062727,11.8392857 L143.517273,11.8392857 C143.53377,12.1142699 143.61804,12.3810801 143.762727,12.6164286 L143.762727,12.6164286 Z" id="Path"></path>
                    <path d="M151.506818,7.905 C151.722213,7.29019109 152.060267,6.7244711 152.500909,6.24142857 C152.923085,5.77399574 153.447869,5.40845717 154.035,5.17285714 C154.676148,4.90803292 155.365279,4.7757976 156.06,4.78428571 C156.758568,4.77718822 157.451429,4.90933838 158.097273,5.17285714 C158.687988,5.40835886 159.216793,5.77377497 159.643636,6.24142857 C160.084279,6.7244711 160.422333,7.29019109 160.637727,7.905 C160.881858,8.61225431 161.002222,9.35554078 160.993636,10.1028571 C161.002326,10.8422488 160.881921,11.5775735 160.637727,12.2764286 C160.422333,12.8912375 160.084279,13.4569575 159.643636,13.94 C159.216357,14.4042188 158.687411,14.7655783 158.097273,14.9964286 C157.450656,15.2561113 156.75776,15.3841383 156.06,15.3728571 C155.366129,15.3851918 154.677031,15.2570948 154.035,14.9964286 C153.448654,14.765103 152.923809,14.4036769 152.500909,13.94 C152.060267,13.4569575 151.722213,12.8912375 151.506818,12.2764286 C151.262624,11.5775735 151.142219,10.8422488 151.150909,10.1028571 C151.142323,9.35554078 151.262687,8.61225431 151.506818,7.905 Z M153.875455,11.2807143 C153.940727,11.6401877 154.069514,11.9854678 154.255909,12.3007143 C154.415426,12.603671 154.657835,12.8561382 154.955455,13.0292857 C155.289532,13.2238619 155.672532,13.320704 156.06,13.3085714 C156.451172,13.3190843 156.837671,13.2224315 157.176818,13.0292857 C157.478143,12.8568908 157.724709,12.6045216 157.888636,12.3007143 C158.075031,11.9854678 158.203819,11.6401877 158.269091,11.2807143 C158.345183,10.8803939 158.382171,10.4737586 158.379545,10.0664286 C158.381426,9.6591296 158.344444,9.25256429 158.269091,8.85214286 C158.205984,8.48827175 158.077106,8.13863446 157.888636,7.82 C157.717502,7.52145525 157.472583,7.27077154 157.176818,7.09142857 C156.839996,6.89266695 156.451823,6.7955954 156.06,6.81214286 C155.671929,6.79437701 155.28733,6.89162328 154.955455,7.09142857 C154.663157,7.27112295 154.422307,7.52196678 154.255909,7.82 C154.06744,8.13863446 153.938561,8.48827175 153.875455,8.85214286 C153.800101,9.25256429 153.763119,9.6591296 153.765,10.0664286 C153.762374,10.4737586 153.799363,10.8803939 153.875455,11.2807143 Z" id="Shape"></path>
                    <polygon id="Path" points="24.0054545 22.9135714 30.6818182 22.9135714 30.6818182 23.46 24.6190909 23.46 24.6190909 27.5764286 30.2890909 27.5764286 30.2890909 28.1228571 24.6190909 28.1228571 24.6190909 32.64 30.7554545 32.64 30.7554545 33.1864286 24.0054545 33.1864286"></polygon>
                    <polygon id="Path" points="32.3140909 22.9135714 32.3140909 33.1864286 31.7863636 33.1864286 31.7863636 22.9135714"></polygon>
                    <path d="M37.5545011,28.05 C37.5519939,27.3377577 37.6596027,26.6293221 37.8736364,25.9492857 C38.0805657,25.346117 38.3920328,24.783191 38.7940909,24.2857143 C39.1862538,23.7715728 39.6948888,23.3556615 40.2790909,23.0714286 C40.9008109,22.7828348 41.5805907,22.6375229 42.2672727,22.6464286 C42.781048,22.6379094 43.2922388,22.7201503 43.7768182,22.8892857 C44.1629979,23.0234988 44.5238555,23.2204858 44.8445455,23.4721429 C45.1236709,23.6940743 45.3677271,23.9560118 45.5686364,24.2492857 C45.7333695,24.4940371 45.8731455,24.7543605 45.9859091,25.0264286 C46.0690854,25.2311046 46.1347701,25.4423207 46.1822727,25.6578571 C46.1822727,25.84 46.1822727,25.9371429 46.1822727,25.9614286 L45.5686364,25.9614286 C45.5226734,25.532728 45.3845859,25.1187089 45.1636364,24.7471429 C44.9711757,24.4120597 44.7123781,24.118831 44.4027273,23.885 C44.1046764,23.642316 43.7633432,23.4569812 43.3963636,23.3385714 C43.0022108,23.202092 42.5866056,23.1362988 42.1690909,23.1442857 C41.5691329,23.1347082 40.9756398,23.2679763 40.4386364,23.5328571 C39.9792429,23.8253952 39.582978,24.2050856 39.2727273,24.65 C38.9168606,25.108933 38.6467088,25.6270703 38.475,26.18 C38.0985877,27.3988518 38.0985877,28.7011482 38.475,29.92 C38.6431531,30.4743576 38.9136236,30.9931063 39.2727273,31.45 C39.622674,31.8844665 40.0619151,32.2404189 40.5613636,32.4942857 C41.0963185,32.7648009 41.6912499,32.898392 42.2918182,32.8828571 C42.7596554,32.8878422 43.2221152,32.7838499 43.6418182,32.5792857 C44.0573578,32.3722732 44.4315768,32.092522 44.7463636,31.7535714 C45.0664653,31.3957561 45.3199313,30.984635 45.495,30.5392857 C45.6830536,30.0994825 45.795068,29.6315373 45.8263636,29.155 L46.4277273,29.155 C46.3823581,29.7415621 46.2371316,30.3163209 45.9981818,30.855 C45.7751987,31.3456179 45.4725622,31.7968198 45.1022727,32.1907143 C44.7571379,32.5643405 44.3398319,32.8657502 43.875,33.0771429 C43.3924555,33.2900718 42.8692447,33.397748 42.3409091,33.3928571 C41.6551738,33.4055619 40.975438,33.264411 40.3527273,32.98 C39.7785971,32.7127129 39.2714459,32.3228968 38.8677273,31.8385714 C38.4606293,31.326437 38.1489469,30.7466747 37.9472727,30.1264286 C37.710868,29.4579502 37.578449,28.7578238 37.5545011,28.05 L37.5545011,28.05 Z" id="Path"></path>
                    <path d="M52.1345455,31.7171429 L52.1345455,31.7171429 C52.0525808,31.9458971 51.9322616,32.1593589 51.7786364,32.3485714 C51.613635,32.5499927 51.4192289,32.7259715 51.2018182,32.8707143 C50.9676567,33.036032 50.7059471,33.1593369 50.4286364,33.235 C50.1255357,33.3210264 49.8111845,33.3619507 49.4959091,33.3564286 C48.8647403,33.3954783 48.2396202,33.215081 47.7286364,32.8464286 C47.0738834,32.1295801 46.9279296,31.0898327 47.3604545,30.2235714 C47.51269,29.9583276 47.7274123,29.7333803 47.9863636,29.5678571 C48.2483888,29.4103395 48.5343122,29.2955404 48.8331818,29.2278571 C49.1291576,29.1673387 49.4282333,29.1227494 49.7290909,29.0942857 L50.5390909,29.0214286 C50.8421635,29.0049572 51.1425466,28.9561016 51.435,28.8757143 C51.6180798,28.8339054 51.7871636,28.7460758 51.9259091,28.6207143 C52.0404801,28.5053802 52.1137548,28.3561168 52.1345455,28.1957143 C52.1500523,27.9814648 52.1500523,27.7663923 52.1345455,27.5521429 C52.1372287,27.3603925 52.0996156,27.1701821 52.0240909,26.9935714 C51.942141,26.8151748 51.8204688,26.6574292 51.6681818,26.5321429 C51.4936885,26.3843475 51.2883363,26.2765381 51.0668182,26.2164286 C50.7686432,26.1270263 50.4577968,26.0860187 50.1463636,26.095 C49.5893327,26.0727892 49.042086,26.2446799 48.6,26.5807143 C48.1846761,26.962711 47.9527192,27.5011589 47.9618182,28.0621429 L47.4340909,28.0621429 C47.4202517,27.373086 47.6957604,26.7091894 48.195,26.2285714 C48.7572364,25.7954435 49.4596013,25.579626 50.1709091,25.6214286 C50.8402811,25.5625506 51.5082667,25.7482985 52.0486364,26.1435714 C52.4392666,26.4930685 52.6547147,26.9949021 52.6377273,27.5157143 L52.6377273,31.8264286 C52.6318388,31.931586 52.6318388,32.0369854 52.6377273,32.1421429 C52.6249385,32.2348081 52.6249385,32.3287633 52.6377273,32.4214286 C52.6603378,32.5057034 52.7072446,32.5816476 52.7727273,32.64 C52.8561584,32.694342 52.9553711,32.7199497 53.055,32.7128571 L53.4354545,32.7128571 L53.4354545,33.1621429 C53.2933861,33.1871273 53.1479776,33.1871273 53.0059091,33.1621429 C52.8338711,33.1713411 52.6619352,33.1422968 52.5027273,33.0771429 C52.3889504,33.0274371 52.2912657,32.947595 52.2204545,32.8464286 C52.1535825,32.7428363 52.1077299,32.6273556 52.0854545,32.5064286 C52.0717308,32.3650873 52.0717308,32.2227699 52.0854545,32.0814286 L52.1345455,31.7171429 Z M52.1345455,28.985 C51.987801,29.166933 51.7777465,29.2881681 51.5454545,29.325 C51.2575259,29.3815802 50.9666135,29.4221202 50.6740909,29.4464286 L49.7904545,29.5314286 L49.005,29.6528571 C48.7593661,29.7059306 48.5234319,29.7960293 48.3054545,29.92 C48.1052102,30.0553092 47.9341649,30.2286722 47.8022727,30.43 C47.6690621,30.6933072 47.6057134,30.9858062 47.6181818,31.28 C47.580692,31.7384768 47.7623705,32.1878667 48.1090909,32.4942857 C48.5102608,32.7726705 48.9943763,32.9095256 49.4836364,32.8828571 C49.9815593,32.9095323 50.476476,32.7913338 50.9072727,32.5428571 C51.2287779,32.3515297 51.5016761,32.0898273 51.705,31.7778571 C51.8740256,31.5178462 51.9945688,31.2299589 52.0609091,30.9278571 C52.0985483,30.7435867 52.1231534,30.5569435 52.1345455,30.3692857 L52.1345455,28.985 Z" id="Shape"></path>
                    <path d="M54.3436364,25.7914286 L54.8713636,25.7914286 L54.8713636,27.3821429 L54.8713636,27.3821429 C54.9522777,27.1122922 55.0856844,26.8606768 55.2640909,26.6414286 C55.4335597,26.4250617 55.6365166,26.2365469 55.8654545,26.0828571 C56.0879729,25.9261667 56.3375111,25.8109478 56.6018182,25.7428571 C56.8678397,25.6602354 57.1452795,25.6192647 57.4240909,25.6214286 C57.7825767,25.6118629 58.1399342,25.6653104 58.4795455,25.7792857 C58.7420926,25.8689443 58.9840407,26.0092751 59.1913636,26.1921429 C59.3674407,26.3604703 59.5127645,26.5576626 59.6209091,26.775 C59.7256971,26.983209 59.8040204,27.2034566 59.8540909,27.4307143 C59.8992213,27.6427653 59.9279409,27.857913 59.94,28.0742857 C59.94,28.2807143 59.94,28.4628571 59.94,28.6085714 L59.94,33.1864286 L59.4122727,33.1864286 L59.4122727,28.5114286 C59.4122727,28.3252381 59.4122727,28.0945238 59.4122727,27.8192857 C59.3813033,27.5432684 59.2980316,27.2754994 59.1668182,27.03 C59.0240661,26.7618718 58.8124124,26.5357047 58.5531818,26.3742857 C58.2133996,26.1718426 57.820185,26.0745792 57.4240909,26.095 C57.0507425,26.0865926 56.6806753,26.165648 56.3440909,26.3257143 C56.0351987,26.4820433 55.7633124,26.7013892 55.5463636,26.9692857 C55.3140153,27.2561269 55.1428416,27.5865899 55.0431818,27.9407143 C54.9255,28.3348351 54.8675963,28.7440562 54.8713636,29.155 L54.8713636,33.15 L54.3436364,33.15 L54.3436364,25.7914286 Z" id="Path"></path>
                    <path d="M66.2727273,31.7171429 L66.2727273,31.7171429 C66.1863798,31.9464295 66.0619413,32.1598405 65.9045455,32.3485714 C65.7470255,32.5524752 65.556224,32.7289457 65.34,32.8707143 C65.1025937,33.0305083 64.8418401,33.1533628 64.5668182,33.235 C64.2595167,33.3209916 63.9411255,33.3619036 63.6218182,33.3564286 C62.9946639,33.3936369 62.3740279,33.2132812 61.8668182,32.8464286 C61.4237198,32.4487375 61.1924569,31.8699686 61.2409091,31.28 C61.2235006,30.9107697 61.3129079,30.5442875 61.4986364,30.2235714 C61.6471019,29.9555915 61.8626181,29.7298127 62.1245455,29.5678571 C62.3865706,29.4103395 62.672494,29.2955404 62.9713636,29.2278571 C63.2519471,29.1849476 63.5346053,29.1565756 63.8181818,29.1428571 L64.6404545,29.07 C64.943405,29.0524328 65.2436713,29.0035963 65.5363636,28.9242857 C65.7185182,28.8800347 65.8870209,28.7925069 66.0272727,28.6692857 C66.1418437,28.5539516 66.2151185,28.4046882 66.2359091,28.2442857 C66.2506967,28.0300114 66.2506967,27.8149886 66.2359091,27.6007143 C66.2385923,27.4089639 66.2009793,27.2187536 66.1254545,27.0421429 C66.0524392,26.8619188 65.9341649,26.7031022 65.7818182,26.5807143 C65.6028447,26.4326749 65.3934546,26.3249443 65.1681818,26.265 C64.8742563,26.1754168 64.5674147,26.1343905 64.26,26.1435714 C63.7029691,26.1213606 63.1557223,26.2932514 62.7136364,26.6292857 C62.2983125,27.0112824 62.0663555,27.5497303 62.0754545,28.1107143 L61.5477273,28.1107143 C61.5230851,27.4221212 61.7952285,26.7555834 62.2963636,26.2771429 C62.8623681,25.8421842 63.5692344,25.6263243 64.2845455,25.67 C64.9539174,25.611122 65.621903,25.7968699 66.1622727,26.1921429 C66.5529029,26.54164 66.7683511,27.0434735 66.7513636,27.5642857 L66.7513636,32.1907143 C66.7444624,32.2836843 66.7444624,32.37703 66.7513636,32.47 C66.7780145,32.5554361 66.8291791,32.6313709 66.8986364,32.6885714 C66.9774763,32.7428851 67.0728431,32.768619 67.1686364,32.7614286 L67.5613636,32.7614286 L67.5613636,33.2107143 C67.4192952,33.2356987 67.2738866,33.2356987 67.1318182,33.2107143 C66.9597802,33.2199125 66.7878443,33.1908682 66.6286364,33.1257143 C66.5148595,33.0760086 66.4171748,32.9961664 66.3463636,32.895 C66.2742742,32.7941158 66.2279537,32.6774568 66.2113636,32.555 C66.1976399,32.4136587 66.1976399,32.2713413 66.2113636,32.13 L66.2727273,31.7171429 Z M66.2727273,28.985 C66.1259829,29.166933 65.9159284,29.2881681 65.6836364,29.325 C65.3917167,29.3823767 65.096674,29.4229212 64.8,29.4464286 L63.9163636,29.5314286 L63.1431818,29.6528571 C62.897548,29.7059306 62.6616137,29.7960293 62.4436364,29.92 C62.2379617,30.0487937 62.0656326,30.2234579 61.9404545,30.43 C61.7968732,30.6899369 61.7289036,30.9841571 61.7440909,31.28 C61.7096462,31.7405069 61.896011,32.1902451 62.2472727,32.4942857 C62.6446628,32.7709056 63.124312,32.9077196 63.6095455,32.8828571 C64.1113871,32.9097913 64.6103059,32.7916554 65.0454545,32.5428571 C65.3651491,32.34921 65.6375711,32.0879643 65.8431818,31.7778571 C66.0122074,31.5178462 66.1327506,31.2299589 66.1990909,30.9278571 C66.2373015,30.7395903 66.2619092,30.5488696 66.2727273,30.3571429 L66.2727273,28.985 Z" id="Shape"></path>
                    <polygon id="Path" points="69.0954545 22.9135714 69.0954545 33.1864286 68.58 33.1864286 68.58 22.9135714"></polygon>
                    <path d="M80.1163636,31.5714286 L80.1163636,31.5714286 C79.870694,32.0967864 79.4897892,32.5490353 79.0118182,32.8828571 C78.528201,33.1856931 77.9638648,33.3379743 77.3918182,33.32 C76.4503722,33.3453578 75.5630218,32.8856926 75.0477273,32.1057143 C74.7946059,31.7352902 74.6077897,31.324536 74.4954545,30.8914286 C74.3709265,30.4155846 74.3090508,29.925817 74.3113011,29.4342857 C74.3114784,28.9181416 74.3774546,28.4040768 74.5077273,27.9042857 C74.6313858,27.4687679 74.8307249,27.0578726 75.0968182,26.69 C75.6659491,25.9577589 76.5569216,25.5418508 77.49,25.5728571 C77.7768048,25.5714478 78.062218,25.6123743 78.3368182,25.6942857 C78.604526,25.7792534 78.8602164,25.8975849 79.0977273,26.0464286 C79.3339274,26.2052105 79.5413803,26.4022579 79.7113636,26.6292857 C79.8987564,26.8581402 80.0366086,27.1226607 80.1163636,27.4064286 L80.1163636,27.4064286 L80.1163636,22.9135714 L80.6440909,22.9135714 L80.6440909,33.1864286 L80.1163636,33.1864286 L80.1163636,31.5714286 Z M77.4777273,32.7857143 C77.8844537,32.7959562 78.2866852,32.6996043 78.6436364,32.5064286 C78.9710009,32.3140315 79.2516957,32.0528876 79.4659091,31.7414286 C79.6935658,31.4102036 79.8559565,31.0394214 79.9445455,30.6485714 C80.0511653,30.2524538 80.1048048,29.844209 80.1040979,29.4342857 C80.1028952,29.0244852 80.0492875,28.6164819 79.9445455,28.22 C79.851234,27.8306872 79.6892029,27.4607261 79.4659091,27.1271429 C79.258125,26.8103111 78.9760255,26.5478604 78.6436364,26.3621429 C78.2706047,26.1521897 77.8450705,26.0511422 77.4163636,26.0707143 C76.6048006,26.0381194 75.8356944,26.4301329 75.3913636,27.1028571 C75.1680698,27.4364403 75.0060387,27.8064014 74.9127273,28.1957143 C74.8450127,28.6294939 74.8285383,29.0695957 74.8636364,29.5071429 C74.8712816,29.916496 74.9247905,30.3237475 75.0231818,30.7214286 C75.1235003,31.1066711 75.2895189,31.4721536 75.5140909,31.8021429 C75.7222742,32.1154809 76.0045104,32.3738911 76.3363636,32.555 C76.6808862,32.7620806 77.0746883,32.8752004 77.4777273,32.8828571 L77.4777273,32.7857143 Z" id="Shape"></path>
                    <path d="M82.5218182,29.5678571 L82.5218182,29.6528571 C82.5211043,30.0627805 82.5747438,30.4710253 82.6813636,30.8671429 C82.7872175,31.2353017 82.9530289,31.5839223 83.1722727,31.8992857 C83.3896879,32.1919303 83.6706755,32.4325993 83.9945455,32.6035714 C84.348661,32.7783636 84.7402412,32.8658493 85.1359091,32.8585714 C85.7564072,32.8954073 86.3660867,32.6855889 86.8295455,32.2757143 C87.27788,31.8365825 87.5816127,31.2736392 87.7009091,30.6607143 L88.2163636,30.6607143 C88.1200783,31.4185976 87.76502,32.1211997 87.21,32.6521429 C86.6263975,33.1229532 85.8881854,33.3649793 85.1359091,33.3321429 C84.6609337,33.343364 84.1899867,33.2435147 83.7613636,33.0407143 C83.3736427,32.8504146 83.033955,32.576561 82.7672727,32.2392857 C82.4953891,31.8764507 82.299299,31.4636525 82.1904545,31.025 C82.0533853,30.5348039 81.9872725,30.0278515 81.9940909,29.5192857 C81.9905254,29.0189002 82.0566003,28.5204111 82.1904545,28.0378571 C82.3144167,27.6002077 82.5182235,27.1886768 82.7918182,26.8235714 C83.0540539,26.4618619 83.3988504,26.1664778 83.7981818,25.9614286 C84.2367848,25.7340251 84.726803,25.6211761 85.2218182,25.6335714 C85.6768421,25.6250182 86.1272598,25.7249773 86.535,25.925 C86.9136438,26.1078258 87.2452151,26.373598 87.5045455,26.7021429 C87.7754891,27.0671556 87.9752669,27.4789552 88.0936364,27.9164286 C88.2285732,28.3738795 88.2947365,28.8484877 88.29,29.325 L88.29,29.4828571 C88.2844091,29.5353308 88.2844091,29.5882406 88.29,29.6407143 L82.5218182,29.5678571 Z M87.75,29.1428571 C87.736636,28.7514093 87.6706001,28.3634699 87.5536364,27.9892857 C87.4501547,27.6464305 87.2837431,27.3253619 87.0627273,27.0421429 C86.8453199,26.7762521 86.5787607,26.5537227 86.2772727,26.3864286 C85.9460691,26.2222817 85.5799482,26.1390066 85.2095455,26.1435714 C84.8180121,26.1382465 84.430873,26.2256801 84.0804545,26.3985714 C83.7692788,26.5619843 83.4939636,26.7848585 83.2704545,27.0542857 C83.0439031,27.3421756 82.8695033,27.666742 82.755,28.0135714 C82.6320983,28.3789077 82.5578367,28.7585324 82.5340909,29.1428571 L87.75,29.1428571 Z" id="Shape"></path>
                    <polygon id="Path" points="94.0090909 22.9135714 94.0090909 33.1864286 93.4813636 33.1864286 93.4813636 22.9135714"></polygon>
                    <path d="M100.403182,31.7171429 L100.403182,31.7171429 C100.317052,31.9440101 100.197086,32.1568442 100.047273,32.3485714 C99.8822714,32.5499927 99.6878652,32.7259715 99.4704545,32.8707143 C99.2330483,33.0305083 98.9722946,33.1533628 98.6972727,33.235 C98.3939902,33.3201586 98.0797696,33.3610659 97.7645455,33.3564286 C97.1333767,33.3954783 96.5082566,33.215081 95.9972727,32.8464286 C95.5541743,32.4487375 95.3229115,31.8699686 95.3713636,31.28 C95.3539552,30.9107697 95.4433625,30.5442875 95.6290909,30.2235714 C95.7775565,29.9555915 95.9930726,29.7298127 96.255,29.5678571 C96.5170252,29.4103395 96.8029485,29.2955404 97.1018182,29.2278571 C97.3976323,29.1664465 97.6967585,29.1218496 97.9977273,29.0942857 L98.8077273,29.0214286 C99.1106777,29.0038614 99.4109441,28.9550249 99.7036364,28.8757143 C99.8867162,28.8339054 100.0558,28.7460758 100.194545,28.6207143 C100.309116,28.5053802 100.382391,28.3561168 100.403182,28.1957143 C100.417969,27.9814399 100.417969,27.7664172 100.403182,27.5521429 C100.405865,27.3603925 100.368252,27.1701821 100.292727,26.9935714 C100.219712,26.8133473 100.101438,26.6545308 99.9490909,26.5321429 C99.7701175,26.3841035 99.5607274,26.2763729 99.3354545,26.2164286 C99.041529,26.1268454 98.7346875,26.0858191 98.4272727,26.095 C97.8702418,26.0727892 97.3229951,26.2446799 96.8809091,26.5807143 C96.4655852,26.962711 96.2336283,27.5011589 96.2427273,28.0621429 L95.7272727,28.0621429 C95.7026305,27.3735498 95.974774,26.707012 96.4759091,26.2285714 C97.0419135,25.7936128 97.7487799,25.5777528 98.4640909,25.6214286 C99.1334629,25.5625506 99.8014485,25.7482985 100.341818,26.1435714 C100.732448,26.4930685 100.947897,26.9949021 100.930909,27.5157143 L100.930909,31.8264286 C100.925021,31.931586 100.925021,32.0369854 100.930909,32.1421429 C100.912392,32.2343367 100.912392,32.3292348 100.930909,32.4214286 C100.95352,32.5057034 101.000426,32.5816476 101.065909,32.64 C101.145552,32.692592 101.240308,32.7181609 101.335909,32.7128571 L101.728636,32.7128571 L101.728636,33.1621429 C101.586568,33.1871273 101.441159,33.1871273 101.299091,33.1621429 C101.127053,33.1713411 100.955117,33.1422968 100.795909,33.0771429 C100.682132,33.0274371 100.584448,32.947595 100.513636,32.8464286 C100.446764,32.7428363 100.400912,32.6273556 100.378636,32.5064286 C100.364913,32.3650873 100.364913,32.2227699 100.378636,32.0814286 L100.403182,31.7171429 Z M100.403182,28.985 C100.256437,29.166933 100.046383,29.2881681 99.8140909,29.325 C99.5261623,29.3815802 99.2352499,29.4221202 98.9427273,29.4464286 L98.0468182,29.5314286 L97.2736364,29.6528571 C97.0280025,29.7059306 96.7920683,29.7960293 96.5740909,29.92 C96.3710955,30.0520373 96.1994291,30.2260298 96.0709091,30.43 C95.9329369,30.69201 95.8653206,30.984701 95.8745455,31.28 C95.8401007,31.7405069 96.0264655,32.1902451 96.3777273,32.4942857 C96.7788971,32.7726705 97.2630126,32.9095256 97.7522727,32.8828571 C98.6404502,32.9402627 99.490441,32.5174414 99.9736364,31.7778571 C100.142662,31.5178462 100.263205,31.2299589 100.329545,30.9278571 C100.367185,30.7435867 100.39179,30.5569435 100.403182,30.3692857 L100.403182,28.985 Z" id="Shape"></path>
                    <path d="M107.165455,22.9135714 L107.165455,29.07 C107.165455,29.2764286 107.165455,29.5071429 107.165455,29.7742857 C107.187409,30.0567324 107.232558,30.3369429 107.300455,30.6121429 C107.377688,30.8975531 107.484623,31.1742708 107.619545,31.4378571 C107.750581,31.7163291 107.93382,31.9676776 108.159545,32.1785714 C108.409625,32.4022823 108.701449,32.5755239 109.018636,32.6885714 C109.4113,32.8307918 109.827999,32.8967581 110.245909,32.8828571 C110.766571,32.9013459 111.285271,32.8102924 111.767727,32.6157143 C112.162883,32.4602014 112.506911,32.1996579 112.761818,31.8628571 C113.029779,31.5008023 113.217928,31.0871175 113.314091,30.6485714 C113.42801,30.1260262 113.481536,29.5923634 113.473636,29.0578571 L113.473636,22.9135714 L114.136364,22.9135714 L114.136364,29.07 C114.141163,29.6457915 114.079399,30.2202375 113.952273,30.7821429 C113.844093,31.2819054 113.630837,31.7535523 113.326364,32.1664286 C113.004874,32.5739376 112.581999,32.8919214 112.099091,33.0892857 C111.518314,33.335585 110.889654,33.4516932 110.258182,33.4292857 C109.748972,33.4445508 109.241311,33.3663255 108.760909,33.1985714 C108.380542,33.070386 108.030002,32.8680678 107.73,32.6035714 C107.45897,32.3699135 107.237828,32.0850582 107.079545,31.7657143 C106.927148,31.4592239 106.807852,31.137683 106.723636,30.8064286 C106.641702,30.5002377 106.588297,30.1872626 106.564091,29.8714286 C106.564091,29.5678571 106.564091,29.3007143 106.564091,29.07 L106.564091,22.9135714 L107.165455,22.9135714 Z" id="Path"></path>
                    <path d="M115.756364,25.7914286 L116.284091,25.7914286 L116.284091,27.3821429 L116.284091,27.3821429 C116.374463,27.1137861 116.511523,26.8631132 116.689091,26.6414286 C116.857333,26.4282215 117.055734,26.2401 117.278182,26.0828571 C117.506588,25.928607 117.759697,25.8136553 118.026818,25.7428571 C118.288596,25.6601122 118.562017,25.6191232 118.836818,25.6214286 C119.195417,25.6100064 119.553108,25.6635038 119.892273,25.7792857 C120.15714,25.8718975 120.402572,26.0118363 120.616364,26.1921429 C120.788072,26.3641886 120.932851,26.5606409 121.045909,26.775 C121.150697,26.983209 121.22902,27.2034566 121.279091,27.4307143 C121.320434,27.6430291 121.345053,27.8581996 121.352727,28.0742857 C121.352727,28.2807143 121.352727,28.4628571 121.352727,28.6085714 L121.352727,33.1864286 L120.825,33.1864286 L120.825,28.5114286 C120.840017,28.2809535 120.840017,28.0497608 120.825,27.8192857 C120.798152,27.5440186 120.71904,27.2762374 120.591818,27.03 C120.44506,26.7647012 120.234253,26.5394398 119.978182,26.3742857 C119.6384,26.1718426 119.245185,26.0745792 118.849091,26.095 C118.475743,26.0865926 118.105675,26.165648 117.769091,26.3257143 C117.456893,26.4769864 117.183972,26.6971677 116.971364,26.9692857 C116.735208,27.2554646 116.559887,27.5858764 116.455909,27.9407143 C116.343862,28.3360218 116.286071,28.7444462 116.284091,29.155 L116.284091,33.15 L115.756364,33.15 L115.756364,25.7914286 Z" id="Path"></path>
                    <path d="M123.070909,24.395 L123.070909,22.9135714 L123.598636,22.9135714 L123.598636,24.395 L123.070909,24.395 Z M123.070909,33.1864286 L123.070909,25.7914286 L123.598636,25.7914286 L123.598636,33.1864286 L123.070909,33.1864286 Z" id="Shape"></path>
                    <path d="M124.936364,29.495 C124.932074,28.9888747 125.006583,28.485114 125.157273,28.0014286 C125.294513,27.5643598 125.506192,27.1536936 125.783182,26.7871429 C126.061958,26.4377904 126.413583,26.152012 126.814091,25.9492857 C127.248031,25.7343215 127.727951,25.6260244 128.213182,25.6335714 C128.698113,25.6288226 129.177377,25.7369717 129.612273,25.9492857 C130.01124,26.149135 130.359445,26.4355437 130.630909,26.7871429 C130.916956,27.1480431 131.129519,27.5604237 131.256818,28.0014286 C131.407507,28.485114 131.482017,28.9888747 131.477727,29.495 C131.480112,30.0009943 131.405644,30.5044714 131.256818,30.9885714 C131.132223,31.4306243 130.919401,31.8435072 130.630909,32.2028571 C130.359445,32.5544563 130.01124,32.840865 129.612273,33.0407143 C129.176495,33.249266 128.697175,33.3532677 128.213182,33.3442857 C127.728912,33.356081 127.248931,33.2519358 126.814091,33.0407143 C126.413583,32.837988 126.061958,32.5522096 125.783182,32.2028571 C125.503861,31.8377469 125.291965,31.4266613 125.157273,30.9885714 C125.008447,30.5044714 124.933979,30.0009943 124.936364,29.495 L124.936364,29.495 Z M125.464091,29.495 C125.469001,29.9061901 125.530943,30.3147666 125.648182,30.7092857 C125.761188,31.0964095 125.939618,31.4618106 126.175909,31.79 C126.400809,32.1022135 126.694596,32.3596712 127.035,32.5428571 C127.775442,32.9149383 128.650922,32.9149383 129.391364,32.5428571 C129.729369,32.3610364 130.019443,32.103148 130.238182,31.79 C130.479324,31.4646746 130.658186,31.0983899 130.765909,30.7092857 C130.883148,30.3147666 130.94509,29.9061901 130.95,29.495 C130.952598,29.063338 130.890561,28.6336757 130.765909,28.22 C130.658029,27.8272144 130.479243,27.4569705 130.238182,27.1271429 C130.014346,26.8184733 129.725411,26.5615981 129.391364,26.3742857 C128.650922,26.0022046 127.775442,26.0022046 127.035,26.3742857 C126.697195,26.5611168 126.404152,26.8179223 126.175909,27.1271429 C125.939597,27.4597397 125.761223,27.8291299 125.648182,28.22 C125.52353,28.6336757 125.461493,29.063338 125.464091,29.495 L125.464091,29.495 Z M129.305455,22.6828571 L130.005,22.6828571 L128.151818,24.6985714 L127.636364,24.6985714 L129.305455,22.6828571 Z" id="Shape"></path>
                    <path d="M132.705,25.7914286 L133.232727,25.7914286 L133.232727,27.3821429 L133.232727,27.3821429 C133.323099,27.1137861 133.46016,26.8631132 133.637727,26.6414286 C133.802868,26.4254701 134.001723,26.2369173 134.226818,26.0828571 C134.451476,25.9298317 134.70034,25.8149241 134.963182,25.7428571 C135.229203,25.6602354 135.506643,25.6192647 135.785455,25.6214286 C136.144053,25.6100064 136.501744,25.6635038 136.840909,25.7792857 C137.103456,25.8689443 137.345404,26.0092751 137.552727,26.1921429 C137.728784,26.3633418 137.877733,26.5598381 137.994545,26.775 C138.099333,26.983209 138.177657,27.2034566 138.227727,27.4307143 C138.26907,27.6430291 138.29369,27.8581996 138.301364,28.0742857 C138.301364,28.2807143 138.301364,28.4628571 138.301364,28.6085714 L138.301364,33.1864286 L137.785909,33.1864286 L137.785909,28.5114286 C137.785909,28.3292857 137.785909,28.0985714 137.785909,27.8192857 C137.760729,27.5421115 137.677113,27.2732362 137.540455,27.03 C137.402547,26.7623745 137.194949,26.5360141 136.939091,26.3742857 C136.599309,26.1718426 136.206094,26.0745792 135.81,26.095 C135.076017,26.0757632 134.375745,26.3996985 133.92,26.9692857 C133.692426,27.2591602 133.521755,27.5886534 133.416818,27.9407143 C133.304771,28.3360218 133.246981,28.7444462 133.245,29.155 L133.245,33.15 L132.717273,33.15 L132.705,25.7914286 Z" id="Path"></path>
                </g>
                <g id="LOGO_CanalCongreso" transform="translate(24.000000, 0.000000)">
                    <path d="M1.22340426,25.3640918 C5.99896699,19.9317138 24.2620833,1.81938673 57.3635554,0.723670148 C58.1617566,0.723670148 58.9463133,0.684065934 59.73087,0.684065934 C89.2711367,0.684065934 108.523477,19.4102583 113.776596,25.2122756 C102.301601,18.0571144 84.2022179,9.37059015 55.9786422,9.37059015 L53.4544161,9.37059015 C29.2627798,9.79303509 7.39752465,21.6941013 1.22340426,25.3640918 Z" id="Path" fill="url(#linearGradient-1)"></path>
                    <path d="M59.6236084,0.672332027 C77.5608176,0.672332027 91.5217647,7.88645468 100.043294,13.9374429 C104.134022,16.8329047 107.933708,20.1133994 111.389527,23.7333206 C99.8739471,16.7141742 82.3634918,8.8209962 55.9047535,8.8209962 L53.3848737,8.8209962 C31.2817341,9.24456538 11.1294693,19.4976288 3.19049302,24.0963799 C6.5623802,20.4894229 10.3190788,17.2567118 14.3944749,14.4551386 C22.9092301,8.55878671 37.2630618,1.3917273 57.2866231,0.712671949 C58.0656182,0.712671949 58.8513872,0.672332027 59.6236084,0.672332027 M59.6236084,0 C58.8468713,0 58.0611023,0.0134466405 57.2663015,0.0403399216 C18.1268775,1.34466405 0,26.8327712 0,26.8327712 C0,26.8327712 24.9075219,10.0244705 53.3984214,9.51349819 L55.9047535,9.51349819 C83.135713,9.51349819 101.242269,17.7293956 115,26.8529412 C115,26.8529412 94.7258055,0.0201699608 59.6236084,0.0201699608 L59.6236084,0 Z" id="Shape" fill="#B3B4B4"></path>
                    <path d="M72.4334406,48.8229865 C68.5787184,48.8229865 64.5113691,46.7269447 61.829525,43.3173834 C59.1680522,40.0381252 58.1405239,35.6915496 59.0447968,31.5376285 C61.1024777,21.7980209 69.4909569,20.75 72.9890145,20.75 C75.8675445,20.7606871 78.7157514,21.3494954 81.3706348,22.4827279 C85.1842034,24.1106537 87.7014331,27.087033 90.3695594,30.2380825 C93.0376856,33.3891321 95.9184389,36.7847198 100.218992,38.4825136 C103.27069,39.7487195 106.52679,40.4262949 109.821503,40.4807401 C111.579049,40.5090489 113.329013,40.2398899 115,39.6842443 C113.916288,41.6056159 110.48682,46.3845912 102.482441,48.1662267 C100.904992,48.5158798 99.2955459,48.6938772 97.6811856,48.697224 L97.6811856,48.697224 C93.072113,48.7007563 88.5775108,47.2348884 84.8275387,44.5051404 C85.8152256,37.7558858 84.5737581,34.9681502 81.4460831,31.3280243 C78.43501,27.8346213 74.120739,27.450347 72.399146,27.450347 C71.61393,27.4478607 70.8304255,27.5250973 70.0602486,27.6809116 C68.3798092,28.0372387 66.9257147,28.924563 66.5278964,29.8468214 C66.36709,30.1888421 66.3851152,30.5901682 66.5759089,30.9158027 C66.7770488,31.265719 67.1522559,31.4729693 67.5498779,31.4537868 C68.0631473,31.4072303 68.5681785,31.2921258 69.051985,31.1114333 C69.5046748,30.9716972 70.019095,30.8110006 70.6226814,30.6712645 C71.3777929,30.4882388 72.1510947,30.3944628 72.9272841,30.3917923 C75.3980377,30.4109683 77.7502099,31.4736184 79.4226968,33.3262508 C81.1717256,35.1498072 82.0633874,38.3148303 81.6312744,41.2003812 C81.2417206,43.9798031 79.5438811,46.3901359 77.0837995,47.6561899 C75.6553056,48.4389756 74.0554249,48.840393 72.4334406,48.8229865 Z" id="Path" fill="url(#linearGradient-2)"></path>
                    <path d="M73.0686118,21.3976292 C75.8445592,21.4073455 78.5912033,21.9726516 81.1504727,23.0610135 C84.8277194,24.6221407 87.2724823,27.4921604 89.905822,30.5598775 C92.5997756,33.7298518 95.4014874,37.0089004 99.7050783,38.6995534 C102.733964,39.9472715 105.965274,40.6152964 109.234939,40.6697095 C110.697374,40.6838869 112.1554,40.5051366 113.572205,40.1379718 C113.066385,40.8952956 112.491394,41.6028432 111.854809,42.251288 C109.132732,44.9418829 105.690388,46.76467 101.95453,47.4936757 C100.432561,47.8316908 98.8791012,48.0031045 97.3209293,48.0049618 C92.9343862,47.9899206 88.6572964,46.6173792 85.0634403,44.0714668 C85.9995892,37.4997352 84.7401659,34.7387898 81.6286495,31.1188837 C78.517133,27.4989775 74.220277,27.2194744 72.4961467,27.2194744 C71.702463,27.2159239 70.9104569,27.2935796 70.1322024,27.4512575 C68.3474581,27.8262007 66.8590487,28.753333 66.4280161,29.762271 C66.2215934,30.1983899 66.244343,30.7101116 66.4886301,31.1257008 C66.7494479,31.5665661 67.2273256,31.8280337 67.7345836,31.8074157 C68.2730047,31.7640896 68.8031459,31.6471346 69.3105465,31.4597411 C69.748314,31.3233981 70.2466954,31.1666037 70.8258954,31.0302607 C71.5439923,30.8633757 72.2779707,30.7765084 73.0147327,30.7712091 C75.3551527,30.7975442 77.5787276,31.8104986 79.1502121,33.5662402 C80.8002587,35.2773446 81.6353843,38.2428044 81.2312913,40.9628469 C80.8619491,43.5663895 79.2604919,45.8236007 76.9411702,47.0096581 C75.5898417,47.7443619 74.0771485,48.1218786 72.5432909,48.1072191 C68.8593093,48.1072191 64.9665463,46.0620744 62.3938206,42.8648315 C59.8369335,39.7491856 58.8429106,35.6138489 59.699867,31.6574385 C61.6799229,22.3929329 69.7079047,21.4317149 73.0618769,21.4317149 M73.0618769,20.75 C66.7782301,20.75 60.7100996,23.7563627 59.0398483,31.5483641 C57.0193831,41.0923727 65.0473649,48.8232801 72.5096164,48.8232801 C74.1537873,48.8350559 75.7746925,48.4295676 77.2240353,47.6436529 C83.6019705,44.1532726 82.6590867,36.2930998 79.5947145,33.1231255 C77.9020172,31.2304759 75.5031735,30.1425087 72.9810583,30.1235799 C72.1940501,30.1258076 71.4099028,30.2195907 70.6440536,30.403083 C69.2431977,30.7303062 68.3070488,31.1597866 67.7009092,31.1597866 C67.4267098,31.1792196 67.1654693,31.039071 67.0274208,30.7984777 C66.5088347,29.9190654 68.0713278,28.6033557 70.2399605,28.1534238 C70.9715539,28.0044805 71.7162377,27.9313867 72.4624723,27.9352751 C75.1092817,27.9352751 78.6248912,28.753333 81.0898587,31.6029013 C84.2552542,35.2637103 85.2856915,37.9087641 84.3091333,44.3782385 C88.0607746,47.1993228 92.6136927,48.7155701 97.2872549,48.700311 C98.8932609,48.6986441 100.494334,48.5203519 102.062288,48.1685734 C112.258902,45.9189142 115,38.9040679 115,38.9040679 C115,38.9040679 112.979535,40.0016289 109.201265,40.0016289 C106.014547,39.9486473 102.865296,39.2967716 99.9138597,38.0791928 C91.7915895,34.8819499 89.2121289,25.8083246 81.4131332,22.4679216 C78.7654706,21.345768 75.9255073,20.7620351 73.0551421,20.75 L73.0618769,20.75 Z" id="Shape" fill="#B3B4B4"></path>
                    <path d="M73.445024,82.9995886 C71.8614396,83.0146519 70.2995215,82.6158788 68.9022489,81.8397733 C66.4968179,80.5686306 64.8368211,78.1571508 64.453416,75.3769475 C64.0373864,72.49837 64.9029964,69.333332 66.6207961,67.5027803 C68.2511155,65.637215 70.553051,64.5615421 72.9753132,64.5333738 C73.7322207,64.5399062 74.4861096,64.6336345 75.2232152,64.8128474 C75.8137088,64.9525841 76.3169705,65.1132814 76.7598407,65.2530182 C77.2341594,65.4395598 77.7309152,65.5571141 78.2360749,65.6023602 C78.6261282,65.6185447 78.9928019,65.4088274 79.1889169,65.0573867 C79.377082,64.7316919 79.3922697,64.328438 79.2291779,63.9884004 C78.846699,63.0731245 77.4241461,62.1788092 75.7734479,61.8224804 C75.0198284,61.6684554 74.253268,61.5935539 73.485285,61.5989016 C71.8077461,61.5989016 67.5803483,61.9761909 64.6413003,65.4765971 C61.5814695,69.11674 60.3669314,71.8975018 61.3264836,78.6537749 C57.6589036,81.3804568 53.264886,82.8460837 48.7583628,82.8458781 C47.1788401,82.8459704 45.6039536,82.6679323 44.0612541,82.3148784 C36.230503,80.5332345 32.8687152,75.7542368 31.8085106,73.839843 C33.4434231,74.3947356 35.1553054,74.6638767 36.8746779,74.6363426 C40.0975504,74.5783545 43.282402,73.9009075 46.2688952,72.6381067 C50.4761626,70.9333181 53.2340364,67.6075829 55.897968,64.3866502 C58.5618997,61.1657176 60.9440048,58.2941269 64.7016917,56.6592066 C67.296642,55.5259901 70.0808712,54.9371611 72.8947913,54.9264706 C76.3236806,54.9264706 84.5167802,55.9814832 86.5365369,65.7211364 C87.4362976,69.8664296 86.4455559,74.2120169 83.8524748,77.4939596 C81.222094,80.8895633 77.2496821,82.9995886 73.4785748,82.9995886 L73.445024,82.9995886 Z" id="Path" fill="url(#linearGradient-3)"></path>
                    <path d="M72.5349847,55.6081891 C75.9028297,55.6081891 83.918301,56.6103154 85.9053296,65.8680535 C86.7634307,69.8244971 85.7691778,73.960318 83.2110536,77.0755066 C80.6312842,80.3068525 76.744791,82.3179223 73.0603685,82.3179223 C71.5271445,82.3326255 70.0147994,81.9575828 68.6619628,81.2271726 C66.3428878,80.0370556 64.7419298,77.7782624 64.3713282,75.1735118 C63.9454317,72.517482 64.7080521,69.8072736 66.4526565,67.7768654 C68.0222502,66.0221588 70.2436068,65.0092188 72.5821345,64.9818193 C73.3194948,64.9851655 74.0540258,65.0743757 74.7712338,65.2476896 C75.3572388,65.3840333 75.8556799,65.5340114 76.2934998,65.6703551 C76.8000127,65.8610408 77.330675,65.9780973 77.8696513,66.0180315 C78.37697,66.0386496 78.8549049,65.7771807 79.115754,65.336313 C79.3600703,64.9207215 79.3828226,64.4089971 79.1763752,63.9728759 C78.7385553,62.9639324 77.2499678,62.0367952 75.4650099,61.66185 C74.6864587,61.5062747 73.8943414,61.4309011 73.1007826,61.4368828 C71.3697103,61.4368828 67.0386615,61.8186452 63.9671868,65.336313 C60.8957121,68.8539808 59.6024596,71.68993 60.5319848,78.2889656 C56.9419071,80.8383222 52.6653424,82.2112926 48.2797644,82.2224817 C46.721386,82.2209939 45.1677016,82.049575 43.6456096,81.7111928 C39.9175076,80.9837744 36.4820076,79.16584 33.7643521,76.4824114 C33.1307593,75.8329953 32.5580199,75.1255252 32.0534868,74.3690839 C33.4686693,74.7335567 34.924297,74.9122701 36.3845356,74.9008244 C39.6571019,74.8433544 42.8908619,74.1730601 45.9222729,72.9238405 C50.2196432,71.2331785 53.0149546,67.9541123 55.722702,64.784121 C58.3159428,61.7436562 60.767734,58.8668039 64.4386851,57.2852168 C66.9994586,56.2007847 69.7456496,55.6356365 72.5215133,55.6218235 M72.5215133,54.940105 C69.6563138,54.9503137 66.8209269,55.5293477 64.1759932,56.6444014 C56.3827997,59.9575536 53.7962947,69.0653135 45.679788,72.2557564 C42.7268873,73.4783388 39.5745398,74.13262 36.3845356,74.1850199 C32.6192848,74.1850199 30.5851064,73.0806358 30.5851064,73.0806358 C30.5851064,73.0806358 33.333268,80.0955198 43.5243672,82.3520082 C45.0954792,82.6987432 46.6986785,82.874715 48.3067072,82.8769315 C52.9796051,82.8912293 57.5321047,81.3776857 61.2863821,78.561653 C60.3029713,72.0853267 61.3402676,69.4402587 64.506042,65.77943 C66.9713046,62.9298465 70.4805992,62.1186014 73.1277254,62.1186014 C73.876035,62.1128053 74.6230059,62.1836097 75.3572388,62.3299341 C77.5261311,62.7866856 79.0888112,64.1024024 78.5634274,64.9750021 C78.4343201,65.2248148 78.1665989,65.3684238 77.8898583,65.336313 C77.2836462,65.336313 76.3473853,64.9068303 74.9396261,64.5796054 C74.1731662,64.3990993 73.3892608,64.3053559 72.6023416,64.3001008 C70.0806429,64.3223645 67.6827746,65.409765 65.9878938,67.2996624 C62.9298905,70.4696537 61.9868939,78.3366859 68.3588568,81.8270849 C69.8089863,82.6106348 71.4300516,83.0137729 73.0738399,82.9996409 C80.5369846,82.9996409 88.5659272,75.2962211 86.5452202,65.7248926 C84.8815047,57.9328494 78.8059122,54.9264706 72.5215133,54.9264706 L72.5215133,54.940105 Z" id="Shape" fill="#B3B4B4"></path>
                    <path d="M42.8613336,63.4701803 C41.2787581,63.4852255 39.7181721,63.0838777 38.3243832,62.3033781 C35.9156612,61.0391834 34.2536712,58.6278887 33.8746818,55.8475383 C33.4518595,52.9619736 34.32435,49.7969352 36.0357736,47.9733701 C37.6664112,46.1078046 39.968796,45.0321315 42.391531,45.0039633 C43.1510318,45.0066338 43.9077072,45.1004103 44.6465833,45.2834368 C45.2371922,45.4231736 45.7405521,45.5838709 46.1835088,45.7236077 C46.6565314,45.9056503 47.1508789,46.020796 47.6533196,46.0659629 C48.0423925,46.0851455 48.4095324,45.8778941 48.6063477,45.5279762 C48.7945495,45.2022813 48.8097401,44.7990274 48.6466164,44.4589898 C48.2640629,43.5367269 46.8412323,42.6493983 45.1902119,42.2930695 C44.4389113,42.1368851 43.6744428,42.0596423 42.9083138,42.0625038 C41.2237361,42.0625038 37.0022245,42.44678 34.0558914,45.9401998 C30.9954633,49.5803432 29.7806881,52.3680922 30.7471391,59.1173792 C27.0759623,61.8433397 22.6791985,63.3088141 18.1698536,63.309483 C16.590203,63.3061362 15.0153613,63.1281379 13.471828,62.7784832 C5.64625974,61.0387601 2.2905272,56.252775 1.22340426,54.3313941 C2.86082891,54.8867989 4.57533364,55.1559432 6.29727185,55.1278938 C9.52114633,55.0734484 12.7072384,54.3958696 15.6933229,53.1296577 C19.9014115,51.4318557 22.6598237,48.10612 25.3242753,44.885187 C27.988727,41.6642539 30.3578741,38.7577287 34.1162946,37.129795 C36.7119593,35.9972814 39.4965961,35.4084811 42.3109934,35.3970588 C45.7405521,35.3970588 53.9352509,36.4450848 55.9621134,46.1847392 C56.8469438,50.3386803 55.841508,54.6852767 53.2372585,57.9645507 C50.6063642,61.3601547 46.6331769,63.4701803 42.8613336,63.4701803 L42.8613336,63.4701803 Z" id="Path" fill="url(#linearGradient-4)"></path>
                    <path d="M41.9316957,36.0978638 C45.2986216,36.0978638 53.3186392,37.0912377 55.2983916,46.3037608 C56.1552167,50.2525002 55.1613461,54.3798189 52.6048509,57.4894239 C50.0594549,60.7280952 46.1672885,62.7692746 42.4838715,62.7692746 C40.9502489,62.7839057 39.4377876,62.407121 38.0866662,61.6738417 C35.7677,60.4900839 34.1664882,58.2372492 33.7972026,55.6387546 C33.3931715,52.917182 34.2281691,49.9642758 35.8779628,48.2564891 C37.4492065,46.5041517 39.6724406,45.4931612 42.0125019,45.4668772 C42.7469617,45.4716203 43.4786554,45.5583294 44.1942699,45.7254266 C44.780115,45.8615052 45.27842,46.0179956 45.7161204,46.1540743 C46.2234433,46.3411044 46.7535033,46.4578326 47.2918418,46.5010748 C47.801116,46.5309728 48.2833967,46.2675675 48.5376044,45.8206816 C48.7842656,45.406631 48.8070671,44.8946577 48.598209,44.4598954 C48.1672425,43.4529135 46.6723274,42.5275789 44.8945905,42.1533626 C44.1142294,41.995672 43.3200796,41.918166 42.5242746,41.922029 C40.7936747,41.922029 36.4638079,42.3030491 33.3999053,45.8138777 C30.3360027,49.3247063 29.0296355,52.1483378 29.9387055,58.6869158 C26.347336,61.2318489 22.0696401,62.6021332 17.683095,62.6127842 C16.1438758,62.6141192 14.6088884,62.4498996 13.1040758,62.1229011 C9.36878971,61.3953089 5.92697333,59.576056 3.2053135,56.8906779 C2.56882645,56.2434903 1.99392302,55.5373146 1.48818127,54.7814592 C2.90456898,55.1489844 4.36251197,55.3274053 5.82478188,55.3121659 C9.08479505,55.2538797 12.3060635,54.5872355 15.3262469,53.3458297 C19.6291782,51.6584547 22.4237268,48.3857637 25.1240014,45.2219357 C27.7165343,42.1805784 30.1676564,39.3161233 33.8376057,37.7376112 C36.3969018,36.6527324 39.142851,36.0885787 41.918228,36.077452 M41.918228,35.3970588 C39.0505528,35.4097853 36.2133641,35.9923759 33.5682516,37.1116495 C25.7839189,40.4387719 23.2048536,49.5220203 15.0838282,52.7130641 C12.1310785,53.9189604 8.98237148,54.5603311 5.79784647,54.604557 C2.02688942,54.604557 0,53.509124 0,53.509124 C0,53.509124 2.74067772,60.5375851 12.9357295,62.7692746 C14.5034428,63.1203711 16.1042706,63.2983175 17.7100304,63.2999812 C22.3826462,63.3137457 26.934421,61.8005864 30.686163,58.9862888 C29.7030206,52.5293579 30.7400338,49.8894326 33.9049442,46.2357214 C36.369534,43.3916781 39.8778708,42.5752064 42.5242746,42.5752064 C43.2726377,42.5710047 44.0194726,42.6439577 44.7531796,42.7929322 C46.9214799,43.2419917 48.4837335,44.5551504 47.9584931,45.4328575 C47.829421,45.6821845 47.5617729,45.8255143 47.2851079,45.7934659 C46.6790612,45.7934659 45.7430558,45.3648182 44.3424146,45.0382295 C43.5766828,44.855093 42.7926556,44.7614917 42.005768,44.7592683 C39.4775199,44.7936847 37.0791758,45.8967568 35.3931255,47.8006257 C32.3359567,50.9644537 31.3932175,58.8093866 37.7701752,62.2929994 C39.2192959,63.0773903 40.8399526,63.4820924 42.4838715,63.4703394 C49.9449794,63.4703394 58.0054001,55.7816371 55.9515753,46.2289175 C54.2883139,38.4180043 48.2211133,35.4174706 41.9316957,35.4174706 L41.918228,35.3970588 Z" id="Shape" fill="#B3B4B4"></path>
                </g>
            </g>
        </g>
    </g>
</svg>