<?xml version="1.0" encoding="utf-8"?>
<!-- Generator: Adobe Illustrator 23.0.0, SVG Export Plug-In . SVG Version: 6.00 Build 0)  -->
<svg version="1.1" id="Capa_1" xmlns="http://www.w3.org/2000/svg" xmlns:xlink="http://www.w3.org/1999/xlink" x="0px" y="0px"
	 width="1000px" height="690px" viewBox="0 0 1000 690" style="enable-background:new 0 0 1000 690;" xml:space="preserve">
<style type="text/css">
	.Sombra_x0020_paralela{fill:none;}
	.Esquinas_x0020_redondeadas_x0020_2_x0020_pt_x002E_{fill:#FFFFFF;stroke:#211915;stroke-miterlimit:10;}
	.Reflejo_x0020_vivo_x0020_X{fill:none;}
	.Bisel_x0020_suave{fill:url(#SVGID_1_);}
	.Atardecer{fill:#FFFFFF;}
	.Follaje_GS{fill:#F8E000;}
	.Pompadour_GS{fill-rule:evenodd;clip-rule:evenodd;fill:#80AFDD;}
	.st0{fill:#0FD567;}
	.st1{fill:#020603;}
</style>
<linearGradient id="SVGID_1_" gradientUnits="userSpaceOnUse" x1="0" y1="0" x2="0.7071" y2="0.70711">
	<stop  offset="0" style="stop-color:#E8E9EC"/>
	<stop  offset="0.17399" style="stop-color:#E4E5E8"/>
	<stop  offset="0.35236" style="stop-color:#D8D9DC"/>
	<stop  offset="0.53279" style="stop-color:#C3C5C7"/>
	<stop  offset="0.71459" style="stop-color:#A7A9AA"/>
	<stop  offset="0.8958" style="stop-color:#828586"/>
	<stop  offset="1" style="stop-color:#6A6D6D"/>
</linearGradient>
<g>
	<path class="st0" d="M956.13898,6.12823L916.57764,5.9573L661.46136,5.04788L438.54028,4.23646L216.97911,3.48929
		c0.05272-0.0011,0.10196-0.01752,0.15483-0.01752l-56.05113-0.17093c-18.83922-0.08539-35.03194,13.20054-38.61992,31.7421
		L5.91752,637.45789c-4.65429,24.09467,13.75737,46.52393,38.32272,46.6095l85.10127,0.29926l178.13734,0.63165l296.10367,1.06769
		l182.22076,0.62378l53.48511,0.21387c18.84204,0.04242,35.0321-13.24347,38.62262-31.74182l23.24066-120.00488l28.8833-149.23428
		l64.42377-333.18506C999.15753,28.59963,980.74585,6.21409,956.13898,6.12823z"/>
	<path class="st1" d="M624.81476,533.67773l-285.93695-1.02484l-31.39966,152.34473l296.1037,1.06775l27.98132-144.27051
		C632.37415,537.60852,629.12775,533.67773,624.81476,533.67773"/>
	<path class="st1" d="M956.13824,6.12762l-39.56128-0.17093l-71.21619,371.07877c-0.8136,4.1871,2.43536,8.11719,6.74817,8.15958
		l77.92529,0.7269l64.42383-333.18512C999.15692,28.59891,980.74524,6.21347,956.13824,6.12762"/>
	<path class="st1" d="M817.37421,539.8125l-31.57159,146.87659l53.48511,0.21387
		c18.84198,0.04236,35.0321-13.24353,38.62262-31.74182l23.2406-120.00482l-77.02856-0.76929
		C820.87604,534.3446,818.05743,536.65173,817.37421,539.8125"/>
	<path class="st1" d="M684.7251,202.29652L559.54871,373.1398c-3.33221,4.52869-0.08325,10.97949,5.55402,10.93658l91.81067-0.21387
		c3.28796,0,6.10663-2.3493,6.74817-5.55322l33.36572-170.62968C698.43793,200.45949,689.08209,196.31531,684.7251,202.29652"/>
	<path class="st1" d="M368.86169,376.98013c0.211-1.02481,0.68292-2.09329,1.36612-2.90475L661.46069,5.04722L438.53952,4.23577
		l-69.38071,371.12119"/>
	<path class="st1" d="M222.09012,154.2348l-108.3421-0.384l-14.27112,0.0424l8.80322-11.06511L211.6208,6.20519
		c1.32478-1.75169,3.33246-2.73408,5.51239-2.73408l-56.05115-0.17093c-18.83911-0.08534-35.03182,13.20055-38.61977,31.74204
		L5.91689,637.45721c-4.65438,24.09473,13.7573,46.52386,38.32266,46.6095l85.10124,0.29919L228.8383,162.3949
		C229.64925,158.20805,226.40289,154.27773,222.09012,154.2348"/>
</g>
</svg>
